<svg width="78" height="78" viewBox="0 0 78 78" fill="none" xmlns="http://www.w3.org/2000/svg">
<mask id="mask0_78_358" style="mask-type:luminance" maskUnits="userSpaceOnUse" x="0" y="23" width="53" height="55">
<path d="M0.733337 23.9333H53V77.749H0.733337V23.9333Z" fill="white"/>
</mask>
<g mask="url(#mask0_78_358)">
<path d="M9.88961 26.9261C9.40628 26.9261 8.95107 27.1417 8.46149 27.5719C8.41045 27.6208 7.76461 28.2333 7.28336 28.6906L6.73753 29.2073C4.28336 31.5011 3.16982 35.6458 3.90419 39.7625C4.14378 41.1 4.52711 42.4844 5.04586 43.8771C7.67086 50.9261 12.6563 57.0583 16.3771 60.9615C20.0802 64.8896 25.9386 70.1979 32.8344 73.1948C34.2011 73.7886 35.5636 74.2458 36.8823 74.5552C40.9552 75.5104 45.1511 74.6188 47.5771 72.2875L47.9032 71.9781C48.3657 71.5396 49.1886 70.7625 49.3094 70.6458C50.7605 69.1531 50.0042 67.8813 47.0063 64.8292L46.2375 64.0417C44.3105 62.0427 41.0886 58.7 38.3865 59.0156C37.6698 59.1 36.9011 59.6365 36.0865 60.2052C35.2573 60.7844 34.399 61.3844 33.3584 61.7146C30.5771 62.5927 27.7563 62.0167 25.4167 60.0875C24.0386 58.9521 22.6313 57.6188 21.349 56.2333C20.0573 54.9031 18.8021 53.4271 17.7386 51.9865C15.9375 49.5458 15.5104 46.6979 16.5375 43.9698C16.9229 42.949 17.5677 42.1229 18.1907 41.326C18.8021 40.5427 19.3792 39.8042 19.5021 39.0927C19.9657 36.4136 16.7948 33.0125 14.9 30.9792L14.1563 30.1729C12.1636 27.9938 10.9594 26.9261 9.88961 26.9261ZM40.1709 77.6354C38.7854 77.6354 37.4521 77.4677 36.2657 77.1896C34.7886 76.8448 33.2719 76.3354 31.7563 75.6771C24.4375 72.4969 18.2854 66.9313 14.4136 62.8229C10.5229 58.7417 5.29482 52.3 2.51044 44.8219C1.9344 43.2781 1.50732 41.7365 1.24065 40.2386C0.530235 36.2625 1.11774 30.7552 4.89378 27.2271L5.41982 26.7281C5.93857 26.2365 6.64065 25.5698 6.6719 25.5427C10.5104 22.1729 13.9063 25.8875 16.1552 28.3469L16.8792 29.1344C19.1167 31.5344 22.8604 35.55 22.1688 39.5531C21.9302 40.9333 21.0771 42.0271 20.324 42.9917C19.8021 43.6583 19.3104 44.2886 19.0698 44.9219C18.3677 46.7917 18.6604 48.6781 19.9157 50.3792C20.9084 51.724 22.0823 53.1052 23.3115 54.3719C24.5365 55.6917 25.8521 56.9375 27.1386 57.9979C28.7698 59.3448 30.6386 59.7365 32.5407 59.1333C33.1875 58.9292 33.8438 58.4708 34.5375 57.9865C35.5407 57.2865 36.6782 56.4917 38.0688 56.3281C42.1042 55.8552 45.9105 59.8031 48.1865 62.1646L48.9355 62.9333C51.2709 65.3083 54.799 68.8979 51.2386 72.5448C51.2375 72.5448 51.2375 72.5448 51.2375 72.5448C51.2375 72.5458 51.2365 72.5469 51.2344 72.549C51.1646 72.6167 50.2636 73.4708 49.7636 73.9448L49.449 74.2417C46.8511 76.7396 43.3719 77.6354 40.1709 77.6354Z" fill="white"/>
</g>
<path d="M27.875 40.2385C27.8677 39.8281 27.8604 39.4812 27.8542 39.2C27.8479 38.9187 27.8438 38.6198 27.8438 38.301C27.8438 37.9833 27.8479 37.5604 27.8542 37.0302C27.8875 35.9385 28.1521 35.0146 28.649 34.2604C29.1458 33.5062 29.876 32.8666 30.8438 32.3437L32.1635 31.6291C32.6271 31.3771 32.924 31.0739 33.0531 30.7208C33.1813 30.3656 33.2552 30.0333 33.276 29.7229C33.3021 29.3646 33.3167 28.9771 33.3198 28.5604C33.324 28.1437 33.3156 27.7531 33.2958 27.3896C33.249 26.6739 32.7698 26.3166 31.8552 26.3166C31.3927 26.3166 31.0583 26.4094 30.8542 26.5948C30.6479 26.7802 30.5385 27.0219 30.525 27.3198C30.5125 27.8364 30.5021 28.3156 30.4958 28.7594C30.4885 29.2031 30.5021 29.6864 30.5344 30.2083H27.8938C27.875 29.7656 27.8594 29.3469 27.849 28.9531C27.8396 28.5594 27.8417 28.1906 27.8542 27.8458C27.9073 26.5281 28.2458 25.5854 28.8729 25.0166C29.4979 24.4479 30.4927 24.1625 31.8552 24.1625C33.299 24.1625 34.3302 24.4479 34.949 25.0166C35.5677 25.5854 35.9031 26.5281 35.9563 27.8458C35.9823 28.5073 35.9823 29.1333 35.9563 29.7229C35.9177 30.7823 35.6458 31.6344 35.1438 32.2791C34.6396 32.925 33.9844 33.4698 33.176 33.9125L31.6781 34.7271C31.2542 34.9594 30.9604 35.3041 30.799 35.7646C30.6354 36.2239 30.5552 36.6458 30.5552 37.0302V37.9239H35.7677V40.2385H27.875Z" fill="white"/>
<path d="M39.2635 33.7636H41.5072L41.8552 29.9709L42.1624 26.6646H41.6072L40.5749 29.9709L39.2635 33.7636ZM41.5072 40.2386V36.0573H36.702V33.8834L40.4552 24.3511H44.0104V33.7636H45.7572V36.0573H44.0104V40.2386H41.5072Z" fill="white"/>
<path d="M56.2323 40.2386L60.7907 26.6646H55.1105V24.3511H63.4511V26.724L59.0032 40.2386H56.2323Z" fill="white"/>
<path d="M49.2948 42.0187L54.1062 23.1729H51.525L46.7135 42.0187H49.2948Z" fill="white"/>
<path d="M14.5958 22.6052C14.4188 22.6052 14.2406 22.5698 14.0677 22.4979C13.3802 22.2073 13.0583 21.4125 13.35 20.725C13.6542 20.0073 13.9802 19.3031 14.3333 18.6135C14.6698 17.9479 15.4833 17.6802 16.1521 18.0208C16.8177 18.3604 17.0833 19.175 16.7438 19.8417C16.4219 20.474 16.1208 21.1208 15.8417 21.7802C15.624 22.2958 15.1229 22.6052 14.5958 22.6052Z" fill="white"/>
<path d="M17.7709 16.8386C17.5053 16.8386 17.2365 16.7604 17.0011 16.5969C16.3865 16.1719 16.2355 15.3292 16.6605 14.7136C17.1542 14.0031 17.6834 13.3011 18.2344 12.6261C18.7073 12.0469 19.5584 11.9604 20.1375 12.4323C20.7178 12.9052 20.8032 13.7563 20.3303 14.3354C19.825 14.9563 19.3375 15.6042 18.8844 16.2573C18.6219 16.6354 18.2 16.8386 17.7709 16.8386Z" fill="white"/>
<path d="M22.824 11.1396C22.45 11.1396 22.0802 10.9865 21.8125 10.6854C21.3156 10.1271 21.3646 9.2719 21.924 8.77503C22.6729 8.10836 23.4594 7.46982 24.2625 6.87503C24.8625 6.43023 25.7083 6.55732 26.1542 7.15836C26.599 7.75836 26.4729 8.60628 25.8719 9.05107C25.1344 9.59586 24.4115 10.1844 23.7229 10.7969C23.4646 11.0261 23.1437 11.1396 22.824 11.1396Z" fill="white"/>
<mask id="mask1_78_358" style="mask-type:luminance" maskUnits="userSpaceOnUse" x="28" y="0" width="50" height="66">
<path d="M28.2 0.348938H77.4895V65.5333H28.2V0.348938Z" fill="white"/>
</mask>
<g mask="url(#mask1_78_358)">
<path d="M54.7115 65.3146C54.3479 65.3146 53.9937 65.1687 53.7344 64.8968C53.3667 64.5135 53.2573 63.9521 53.4542 63.4593L55.6948 57.85C55.9719 57.1552 56.7614 56.8198 57.4542 57.0958C58.1479 57.3729 58.4854 58.1604 58.2083 58.8541L57.149 61.5052C67.8177 56.4968 74.7917 45.6937 74.7917 33.7229C74.7917 16.8062 61.0281 3.04268 44.1104 3.04268C39.2792 3.04268 34.6552 4.1333 30.3698 6.28434C29.699 6.61976 28.8865 6.34893 28.5521 5.68226C28.2177 5.01455 28.4875 4.20101 29.1552 3.86663C33.8219 1.52288 38.8531 0.336426 44.1104 0.336426C62.5208 0.336426 77.4979 15.3135 77.4979 33.7229C77.4979 47.8896 68.5198 60.5541 55.1583 65.2385C55.0125 65.2896 54.8615 65.3146 54.7115 65.3146Z" fill="white"/>
</g>
<path d="M60.3792 67.05C60.2469 67.05 60.1146 67.0292 59.9813 66.9896L54.3157 65.2552C53.6 65.0365 53.199 64.2792 53.4177 63.5656C53.6365 62.8511 54.3979 62.449 55.1073 62.6667L60.774 64.4011C61.4896 64.6198 61.8896 65.3771 61.6709 66.0906C61.4927 66.674 60.9573 67.05 60.3792 67.05Z" fill="white"/>
</svg>
