<svg width="62" height="70" viewBox="0 0 62 70" fill="none" xmlns="http://www.w3.org/2000/svg">
<mask id="mask0_20_192" style="mask-type:luminance" maskUnits="userSpaceOnUse" x="25" y="33" width="37" height="25">
<path d="M25.0814 33.5392H61.7028V57.8464H25.0814V33.5392Z" fill="white"/>
</mask>
<g mask="url(#mask0_20_192)">
<path d="M56.2806 44.086L60.2786 47.726C60.6054 48.0246 61.113 48.0036 61.4107 47.674C61.7092 47.3481 61.6864 46.8413 61.3586 46.5437L47.6858 34.0934C46.005 32.5633 42.2372 35.1132 41.9131 37.5627L34.3673 40.7153C34.0322 39.8872 33.4662 39.1413 32.6783 38.5944C30.53 37.1026 27.5647 37.6221 26.0583 39.7877C24.561 41.9396 25.0905 44.8976 27.2534 46.3976C29.4043 47.8876 32.3743 47.359 33.8734 45.2053C34.4851 44.3243 34.7398 43.3081 34.6987 42.3121L42.3413 39.1185L55.5174 57.3726C55.7748 57.7295 56.2761 57.8135 56.6367 57.5543C56.9964 57.2959 57.0777 56.7947 56.8184 56.4359L53.3481 51.6281C53.4422 51.4619 55.3412 46.5063 56.2806 44.086ZM32.555 44.2914C31.5626 45.7166 29.5924 46.069 28.1682 45.082C26.743 44.0933 26.3787 42.1349 27.3766 40.7006C28.3644 39.2791 30.3255 38.913 31.7635 39.9109C33.1914 40.9006 33.5465 42.8662 32.555 44.2914ZM54.0831 42.0847L47.7452 42.7092L47.5827 36.1659L54.0831 42.0847ZM44.5899 36.1065C45.0994 35.6573 45.5851 35.4218 45.9557 35.3122L46.1137 41.6063L43.5099 38C43.4058 37.8503 43.6121 36.9656 44.5899 36.1065ZM48.0501 44.2896L54.7377 43.6304L52.2398 50.0934L48.0501 44.2896Z" fill="#9EC9D0"/>
</g>
<path d="M36.6188 33.2262L33.4553 36.1888C33.1312 36.491 33.1157 36.9977 33.4188 37.32C33.5767 37.4889 33.7894 37.5738 34.004 37.5738C34.2003 37.5738 34.3975 37.5016 34.5518 37.3565L37.7153 34.3939C38.0384 34.0917 38.0549 33.585 37.7518 33.2627C37.4487 32.9386 36.941 32.924 36.6188 33.2262Z" fill="#9EC9D0"/>
<path d="M30.2817 31.6457L29.8846 35.9586C29.8444 36.3987 30.1685 36.7885 30.6104 36.8287C30.636 36.8315 30.6597 36.8324 30.6844 36.8324C31.0943 36.8324 31.444 36.5201 31.4823 36.1038L31.8795 31.7918C31.9205 31.3517 31.5955 30.9619 31.1536 30.9217C30.7163 30.8806 30.3228 31.2038 30.2817 31.6457Z" fill="#9EC9D0"/>
<path d="M44.0486 27.1484C44.0495 27.1484 44.0495 27.1484 44.0495 27.1484L46.4013 30.4726C46.9236 31.213 48.0091 31.244 48.5751 30.5328L50.6038 27.9664C51.2392 27.163 50.7846 25.9707 49.7721 25.7926L45.3898 25.0312C44.2029 24.8249 43.352 26.1597 44.0486 27.1484ZM49.0873 27.3L47.5216 29.2802L45.7047 26.7129L49.0873 27.3Z" fill="#9EC9D0"/>
<path d="M45.9622 10.6801C45.8608 10.2711 45.4527 10.0155 45.0464 10.0812L40.7783 10.8207C40.3108 10.902 40.015 11.3676 40.1419 11.8241L41.3297 16.0986C41.4648 16.5907 42.0245 16.8327 42.481 16.5907L46.2927 14.5521C46.6159 14.3786 46.7793 14.0107 46.6925 13.6555L45.9622 10.6801ZM42.607 14.7064L41.925 12.2486L44.5826 11.7876L44.9862 13.4327L42.607 14.7064Z" fill="#9EC9D0"/>
<path d="M53.0834 16.9697C52.9382 16.6721 52.6306 16.4922 52.2937 16.5242L50.8192 16.6529C50.244 16.7013 49.9053 17.3312 50.1883 17.8389L50.5983 18.5775C50.7809 18.908 51.1652 19.0559 51.5076 18.9627L52.8241 18.6094C53.3171 18.477 53.5572 17.9292 53.3354 17.4837L53.0834 16.9697Z" fill="#9EC9D0"/>
<path d="M37.9754 20.637L37.7225 20.123C37.5774 19.8254 37.2606 19.6455 36.9337 19.6775L35.4593 19.8044C34.8786 19.8537 34.5463 20.4864 34.8275 20.9913L35.2383 21.7299C35.4182 22.0549 35.7989 22.2092 36.1458 22.1151L37.4623 21.7636C37.9526 21.6331 38.1973 21.0853 37.9754 20.637Z" fill="#9EC9D0"/>
<path d="M16.2364 19.483C16.2364 19.0402 15.8776 18.6814 15.4349 18.6814C14.9921 18.6814 14.6323 19.0402 14.6323 19.483V23.7375C14.6323 23.9064 14.4945 24.0442 14.3256 24.0442H6.79989C6.35801 24.0442 5.99829 24.403 5.99829 24.8449C5.99829 25.2868 6.35801 25.6456 6.79989 25.6456H14.3256C15.3792 25.6456 16.2364 24.7892 16.2364 23.7375V19.483Z" fill="#9EC9D0"/>
<path d="M16.2364 33.5183C16.2364 32.4875 15.3974 31.6494 14.3658 31.6494H7.8699C6.83823 31.6494 5.99829 32.4875 5.99829 33.5183V36.7448C5.99829 37.7746 6.83823 38.6136 7.8699 38.6136H14.3658C15.3974 38.6136 16.2364 37.7746 16.2364 36.7448V33.5183ZM14.6323 36.7448C14.6323 36.8917 14.5127 37.0113 14.3658 37.0113H7.8699C7.72291 37.0113 7.6024 36.8917 7.6024 36.7448V33.5183C7.6024 33.3713 7.72291 33.2508 7.8699 33.2508H14.3658C14.5127 33.2508 14.6323 33.3713 14.6323 33.5183V36.7448Z" fill="#9EC9D0"/>
<path d="M14.3658 44.3792H7.8699C6.83823 44.3792 5.99829 45.2173 5.99829 46.248V49.4754C5.99829 50.5062 6.83823 51.3443 7.8699 51.3443H14.3658C15.3974 51.3443 16.2364 50.5062 16.2364 49.4754V46.248C16.2364 45.2173 15.3974 44.3792 14.3658 44.3792ZM14.6323 49.4754C14.6323 49.6224 14.5127 49.742 14.3658 49.742H7.8699C7.72291 49.742 7.6024 49.6224 7.6024 49.4754V46.248C7.6024 46.101 7.72291 45.9805 7.8699 45.9805H14.3658C14.5127 45.9805 14.6323 46.101 14.6323 46.248V49.4754Z" fill="#9EC9D0"/>
<mask id="mask1_20_192" style="mask-type:luminance" maskUnits="userSpaceOnUse" x="0" y="0" width="35" height="70">
<path d="M0 0H34.8977V70H0V0Z" fill="white"/>
</mask>
<g mask="url(#mask1_20_192)">
<path d="M1.81792 22.124C1.51664 22.4718 1.35047 22.9173 1.35047 23.3766V67.8369C1.35047 69.0164 2.20776 69.9769 3.26134 69.9769H32.8948C33.9484 69.9769 34.8057 69.0164 34.8057 67.8369V51.8798C34.8057 51.0527 34.0762 50.441 33.2966 50.5341L29.2858 50.9897C28.9015 51.0326 28.5545 51.2371 28.3345 51.5484L26.5122 54.0974C26.2538 54.4581 26.3387 54.9584 26.6985 55.2149C27.06 55.4742 27.5603 55.3866 27.8169 55.0278L29.5762 52.5682L33.2016 52.1574V67.8369C33.2016 68.1601 33.0172 68.3755 32.8948 68.3755H23.9212V58.3528C23.9212 57.3002 23.0639 56.4438 22.0094 56.4438H14.1459C13.0923 56.4438 12.235 57.3002 12.235 58.3528V68.3755H3.26134C3.139 68.3755 2.95458 68.1601 2.95458 67.8369V23.3766C2.95458 23.3017 2.98106 23.2305 3.02944 23.1748L10.4648 14.6567C10.7268 14.3572 10.7286 13.909 10.4684 13.6077L8.91725 11.8091C8.78213 11.6512 8.83965 11.4129 9.02316 11.3298L12.6943 9.66636H32.8948C33.0172 9.66636 33.2016 9.88091 33.2016 10.2041V15.1461L26.0995 18.9514C25.6878 19.1723 25.4212 19.5813 25.3883 20.046L24.7264 29.2379L19.2741 36.3646C18.9573 36.7773 18.9062 37.326 19.1335 37.7871L20.8326 42.7537C20.9768 43.1755 21.436 43.3946 21.8514 43.2531C22.2705 43.1106 22.4942 42.6551 22.3518 42.2369L20.6354 37.2228L26.0448 30.1527C26.2082 29.9418 26.3031 29.6898 26.3205 29.426L26.9787 20.298L34.383 16.332C34.6432 16.1923 34.8057 15.9212 34.8057 15.6263V10.2041C34.8057 9.02453 33.9484 8.06408 32.8948 8.06408H21.1064V5.78071H24.2663C24.7091 5.78071 25.0688 5.42191 25.0688 4.98003C25.0688 4.53724 24.7091 4.17843 24.2663 4.17843H21.1064V0.833276C21.1064 0.391394 20.7476 0.0325928 20.3049 0.0325928C19.8621 0.0325928 19.5023 0.391394 19.5023 0.833276V4.17843H12.8431V0.833276C12.8431 0.391394 12.4834 0.0325928 12.0406 0.0325928C11.5978 0.0325928 11.239 0.391394 11.239 0.833276V4.17843H4.74676V0.833276C4.74676 0.391394 4.38704 0.0325928 3.94425 0.0325928C3.50145 0.0325928 3.14265 0.391394 3.14265 0.833276V4.17843H0.778034C0.335239 4.17843 -0.0244751 4.53724 -0.0244751 4.98003C-0.0244751 5.42191 0.335239 5.78071 0.778034 5.78071H3.14265V10.4104H0.778034C0.335239 10.4104 -0.0244751 10.7692 -0.0244751 11.212C-0.0244751 11.6539 0.335239 12.0127 0.778034 12.0127H3.14265V20.6066L1.81792 22.124ZM13.8391 58.3528C13.8391 58.1839 13.977 58.0461 14.1459 58.0461H22.0094C22.1792 58.0461 22.3171 58.1839 22.3171 58.3528V68.3755H13.8391V58.3528ZM19.5023 5.78071V8.06408H12.8431V5.78071H19.5023ZM4.74676 12.0127H5.36759C5.81038 12.0127 6.17009 11.6539 6.17009 11.212C6.17009 10.7692 5.81038 10.4104 5.36759 10.4104H4.74676V5.78071H11.239V8.34984C11.239 8.42105 11.2618 8.48405 11.2791 8.54978L8.35942 9.87178C7.19628 10.3986 6.87126 11.8922 7.70208 12.8545L8.79948 14.1272L4.74676 18.7697V12.0127Z" fill="#9EC9D0"/>
</g>
</svg>
