<svg width="78" height="75" viewBox="0 0 78 75" fill="none" xmlns="http://www.w3.org/2000/svg">
<mask id="mask0_129_1231" style="mask-type:luminance" maskUnits="userSpaceOnUse" x="0" y="0" width="78" height="75">
<path d="M0 0H77.7202V75H0V0Z" fill="white"/>
</mask>
<g mask="url(#mask0_129_1231)">
<path fill-rule="evenodd" clip-rule="evenodd" d="M42.6632 3.49333C41.6897 2.52182 40.3458 1.92071 38.8602 1.92071C37.3746 1.92071 36.0307 2.52182 35.0571 3.49333C34.0856 4.46483 33.4825 5.80672 33.4825 7.29028C33.4825 8.77385 34.0856 10.1157 35.0571 11.0872C36.0307 12.0587 37.3746 12.6599 38.8602 12.6599C40.3458 12.6599 41.6897 12.0587 42.6632 11.0872C43.6347 10.1157 44.2378 8.77385 44.2378 7.29028C44.2378 5.80672 43.6347 4.46483 42.6632 3.49333ZM38.8602 0.0323486C40.868 0.0323486 42.6834 0.843958 43.999 2.15751C45.3146 3.47106 46.1282 5.28656 46.1282 7.29028C46.1282 9.29401 45.3146 11.1095 43.999 12.4231C42.6834 13.7366 40.868 14.5482 38.8602 14.5482C36.8524 14.5482 35.0369 13.7366 33.7213 12.4231C32.4058 11.1095 31.5921 9.29401 31.5921 7.29028C31.5921 5.28656 32.4058 3.47106 33.7213 2.15751C35.0369 0.843958 36.8524 0.0323486 38.8602 0.0323486ZM24.5002 10.7654C23.7574 10.0247 22.7312 9.56522 21.5978 9.56522C20.4644 9.56522 19.4382 10.0247 18.6954 10.7654C17.9526 11.5082 17.4932 12.5323 17.4932 13.6637C17.4932 14.7972 17.9526 15.8213 18.6954 16.5641C19.4382 17.3049 20.4644 17.7643 21.5978 17.7643C22.7312 17.7643 23.7574 17.3049 24.5002 16.5641C25.2429 15.8213 25.7024 14.7972 25.7024 13.6637C25.7024 12.5323 25.2429 11.5082 24.5002 10.7654ZM21.5978 7.67686C23.2534 7.67686 24.7531 8.34679 25.838 9.43164C26.9228 10.5145 27.5928 12.0122 27.5928 13.6637C27.5928 15.3173 26.9228 16.8151 25.838 17.8979C24.7531 18.9827 23.2534 19.6527 21.5978 19.6527C19.9422 19.6527 18.4424 18.9827 17.3576 17.8979C16.2727 16.8151 15.6028 15.3173 15.6028 13.6637C15.6028 12.0122 16.2727 10.5145 17.3576 9.43164C18.4445 8.34679 19.9422 7.67686 21.5978 7.67686ZM59.0249 10.7654C58.2821 10.0247 57.256 9.56522 56.1226 9.56522C54.9891 9.56522 53.963 10.0247 53.2202 10.7654C52.4774 11.5082 52.018 12.5323 52.018 13.6637C52.018 14.7972 52.4774 15.8213 53.2202 16.5641C53.963 17.3049 54.9891 17.7643 56.1226 17.7643C57.256 17.7643 58.2821 17.3049 59.0249 16.5641C59.7677 15.8213 60.2272 14.7972 60.2272 13.6637C60.2272 12.5323 59.7677 11.5082 59.0249 10.7654ZM56.1226 7.67686C57.7782 7.67686 59.2779 8.34679 60.3628 9.43164C61.4476 10.5145 62.1175 12.0122 62.1175 13.6637C62.1175 15.3173 61.4476 16.8151 60.3628 17.8979C59.2759 18.9827 57.7782 19.6527 56.1226 19.6527C54.467 19.6527 52.9672 18.9827 51.8824 17.8979C50.7975 16.8151 50.1276 15.3173 50.1276 13.6637C50.1276 12.0122 50.7975 10.5145 51.8824 9.43164C52.9672 8.34679 54.467 7.67686 56.1226 7.67686ZM67.6268 43.6467L67.6207 43.6447C67.4689 43.5881 67.309 43.5456 67.1491 43.5192C66.5298 43.414 65.874 43.5192 65.3276 43.8572L51.0444 52.706C47.3811 54.9769 45.5251 58.1242 44.5839 61.7106C43.6873 65.123 43.6023 68.9908 43.5963 72.8971L59.454 73.059C58.9541 65.4286 59.6443 64.8579 64.4471 60.9132C66.129 59.5328 68.3554 57.7012 71.2881 54.8797C71.8285 54.3596 72.2576 53.8172 72.5612 53.2302C72.8567 52.6635 73.0368 52.0523 73.0915 51.3763H73.0935C73.0955 51.3601 73.0975 51.3419 73.0996 51.3236L75.7085 32.1102C75.7085 32.0899 75.7105 32.0676 75.7145 32.0474L75.7206 32.0029C75.7833 31.4847 75.6093 30.9828 75.2753 30.5861L75.2774 30.5841C74.9252 30.1671 74.3969 29.8656 73.7675 29.7745L73.7007 29.7644C73.047 29.6854 72.4317 29.8534 71.954 30.1854C71.4784 30.5132 71.1384 31.003 71.0311 31.5698L69.0172 42.232C69.4605 42.4992 69.8552 42.8453 70.1729 43.2662C70.2154 43.3229 70.2519 43.3836 70.2802 43.4464C70.768 44.3673 70.9623 45.4197 70.7599 46.3973C70.5656 47.3344 70.0252 48.1885 69.0557 48.7876L58.6222 55.2522C58.1809 55.5254 57.6001 55.3878 57.3268 54.9465C57.0536 54.5053 57.1892 53.9244 57.6324 53.6512L68.066 47.1867C68.5517 46.8871 68.8209 46.4722 68.914 46.0229C69.0233 45.4906 68.91 44.8976 68.6307 44.3572C68.3716 44.0313 68.0194 43.7925 67.6268 43.6467ZM8.54323 31.2237L10.5085 41.6248C11.482 41.5135 12.5061 41.7139 13.3825 42.2563L14.7102 43.078V40.5744H14.0808C13.1862 40.5744 12.3726 40.208 11.7836 39.6211C11.1966 39.0341 10.8303 38.2225 10.8303 37.3279V26.3317C10.8303 24.5608 11.5569 22.9497 12.7247 21.7819C13.8926 20.614 15.5057 19.8895 17.2807 19.8895H25.9149C26.0404 19.8895 26.178 19.8955 26.3258 19.9057C26.7184 19.0515 27.2629 18.2784 27.9207 17.6206C29.3395 16.2018 31.3007 15.3214 33.4562 15.3214H44.2642C46.4197 15.3214 48.3809 16.2018 49.7997 17.6206C50.4575 18.2784 51.0019 19.0515 51.3926 19.9057C51.5423 19.8955 51.68 19.8895 51.8054 19.8895H60.4397C62.2147 19.8895 63.8258 20.614 64.9956 21.7819C66.1634 22.9497 66.8901 24.5587 66.8901 26.3317V37.3279C66.8901 38.2225 66.5237 39.0341 65.9368 39.6211C65.3478 40.208 64.5342 40.5744 63.6396 40.5744H63.0101V43.078L64.3378 42.2563C65.2142 41.7139 66.2383 41.5135 67.2119 41.6248L69.1771 31.2237C69.3795 30.155 70.009 29.2402 70.8813 28.635C71.7253 28.0521 72.796 27.7546 73.9233 27.8922C73.9557 27.8963 73.9962 27.9003 74.0427 27.9084C75.1377 28.0683 76.0788 28.6148 76.7204 29.3778H76.7245C77.3823 30.1611 77.7243 31.169 77.5968 32.2255L77.5826 32.3206L77.5766 32.3631L74.9758 51.524C74.8989 52.4631 74.6499 53.3132 74.2391 54.1005C73.8383 54.8696 73.2858 55.5719 72.5956 56.2358C69.6285 59.0916 67.3576 60.9577 65.6433 62.3664C61.3201 65.9184 60.8546 66.301 61.4092 73.9435C61.4456 74.4616 61.0529 74.9129 60.5328 74.9494C60.4842 74.9534 60.4356 74.9534 60.3891 74.9494L42.6409 74.7672C42.1248 74.7632 41.7079 74.3442 41.7079 73.8281H41.7038C41.7038 69.4988 41.7281 65.1696 42.7583 61.239C43.8148 57.2134 45.9096 53.6735 50.0547 51.1051L61.1602 44.2236C61.1339 44.1386 61.1197 44.0455 61.1197 43.9503V28.5075C61.1197 27.9873 61.5427 27.5643 62.0649 27.5643C62.5871 27.5643 63.0101 27.9873 63.0101 28.5075V38.686H63.6396C64.012 38.686 64.352 38.5322 64.5989 38.2853C64.8458 38.0404 64.9997 37.7003 64.9997 37.3279V26.3317C64.9997 25.0809 64.4856 23.9435 63.6578 23.1177C62.832 22.2919 61.6925 21.7778 60.4397 21.7778H51.9815C52.0605 22.2231 52.1009 22.6825 52.1009 23.1501V36.915C52.1009 37.8926 51.7306 38.7852 51.1254 39.4632V43.9524C51.1254 44.4725 50.7004 44.8955 50.1782 44.8955C49.658 44.8955 49.233 44.4725 49.233 43.9524V40.6189C48.9253 40.6978 48.6035 40.7403 48.2716 40.7403H47.2455V45.2072C47.2455 45.7294 46.8224 46.1524 46.3003 46.1524C45.7781 46.1524 45.3551 45.7294 45.3551 45.2072V25.8743C45.3551 25.3521 45.7781 24.9291 46.3003 24.9291C46.8224 24.9291 47.2455 25.3521 47.2455 25.8743V38.852H48.2716C48.7574 38.852 49.2047 38.6698 49.5467 38.3723L49.5609 38.3581C49.5892 38.3338 49.6155 38.3096 49.6398 38.2832C49.992 37.9311 50.2106 37.4473 50.2106 36.9171V23.1501C50.2106 21.5167 49.5406 20.0332 48.4639 18.9564C47.3851 17.8797 45.8995 17.2097 44.2642 17.2097H33.4562C31.8208 17.2097 30.3352 17.8797 29.2565 18.9564C28.1777 20.0332 27.5098 21.5167 27.5098 23.1501V36.9171C27.5098 37.4473 27.7284 37.9311 28.0805 38.2832C28.1048 38.3096 28.1311 38.3338 28.1595 38.3581L28.1736 38.3723C28.5157 38.6718 28.963 38.852 29.4487 38.852H30.4749V25.8743C30.4749 25.3521 30.8979 24.9291 31.4201 24.9291C31.9423 24.9291 32.3653 25.3521 32.3653 25.8743V45.2072C32.3653 45.7294 31.9423 46.1524 31.4201 46.1524C30.8979 46.1524 30.4749 45.7294 30.4749 45.2072V40.7403H29.4487C29.1168 40.7403 28.795 40.6978 28.4874 40.6189V43.9524C28.4874 44.4725 28.0623 44.8955 27.5401 44.8955C27.018 44.8955 26.595 44.4725 26.595 43.9524V39.4632C25.9878 38.7852 25.6194 37.8926 25.6194 36.9171V23.1501C25.6194 22.6825 25.6599 22.2251 25.7388 21.7778H17.2807C16.0278 21.7778 14.8884 22.2919 14.0626 23.1177C13.2348 23.9435 12.7207 25.0809 12.7207 26.3317V37.3279C12.7207 37.7003 12.8745 38.0404 13.1214 38.2873C13.3684 38.5322 13.7084 38.686 14.0808 38.686H14.7102V28.5075C14.7102 27.9873 15.1333 27.5643 15.6554 27.5643C16.1776 27.5643 16.6006 27.9873 16.6006 28.5075V43.9524C16.6006 44.0475 16.5865 44.1386 16.5601 44.2256L27.6656 51.1051C31.8107 53.6735 33.9055 57.2134 34.962 61.239C35.9922 65.1696 36.0165 69.4988 36.0165 73.8281H36.0125C36.0125 74.3442 35.5955 74.7632 35.0774 74.7672L17.3313 74.9494C17.2847 74.9534 17.2361 74.9534 17.1876 74.9494C16.6674 74.9129 16.2748 74.4616 16.3112 73.9435C16.8658 66.301 16.4003 65.9184 12.0771 62.3664C10.3628 60.9577 8.09188 59.0916 5.12475 56.2358C4.43458 55.5719 3.88204 54.8696 3.48129 54.1005C3.07043 53.3132 2.82148 52.4631 2.74457 51.524L0.143775 32.3631L0.137703 32.3206L0.123535 32.2255C-0.00397391 31.169 0.338076 30.1611 0.995864 29.3778L0.999912 29.3798V29.3778C1.64151 28.6148 2.58265 28.0683 3.67964 27.9084C3.72417 27.9003 3.76465 27.8963 3.79703 27.8922C4.92438 27.7566 5.99505 28.0521 6.83905 28.635C7.71137 29.2402 8.34083 30.155 8.54323 31.2237ZM10.0997 43.6447L10.0916 43.6467C9.69891 43.7925 9.34876 44.0333 9.08969 44.3572C8.81039 44.8976 8.69705 45.4906 8.80634 46.0229C8.89944 46.4722 9.16863 46.8871 9.65438 47.1867L20.0879 53.6512C20.5291 53.9244 20.6668 54.5053 20.3935 54.9465C20.1203 55.3878 19.5394 55.5254 19.0982 55.2522L8.66466 48.7876C7.69518 48.1885 7.15479 47.3344 6.96048 46.3973C6.75809 45.4197 6.95239 44.3673 7.44016 43.4464C7.4685 43.3836 7.50493 43.3229 7.54743 43.2662C7.8652 42.8453 8.25987 42.4992 8.70312 42.232L6.68927 31.5698C6.582 31.003 6.24198 30.5132 5.76837 30.1854C5.28869 29.8534 4.67341 29.6854 4.01967 29.7644L3.95287 29.7745C3.32342 29.8656 2.79517 30.1671 2.443 30.5841L2.44502 30.5861C2.11107 30.9828 1.93701 31.4847 1.99975 32.0029L2.00582 32.0474C2.00987 32.0676 2.01189 32.0899 2.01189 32.1102L4.62078 51.3236C4.62281 51.3419 4.62483 51.3601 4.62685 51.3763H4.62888C4.68353 52.0523 4.86366 52.6635 5.15916 53.2302C5.46275 53.8172 5.89183 54.3596 6.43223 54.8797C9.36495 57.7012 11.5913 59.5328 13.2732 60.9132C18.0741 64.8579 18.7663 65.4286 18.2663 73.059L34.1241 72.8971C34.118 68.9908 34.033 65.123 33.1364 61.7127C32.1953 58.1242 30.3393 54.9769 26.6759 52.706L12.3928 43.8572C11.8463 43.5192 11.1906 43.414 10.5712 43.5192C10.4113 43.5456 10.2514 43.5881 10.0997 43.6447Z" fill="#2C565C"/>
</g>
</svg>
