<svg width="75" height="75" viewBox="0 0 75 75" fill="none" xmlns="http://www.w3.org/2000/svg">
<mask id="mask0_55_251" style="mask-type:luminance" maskUnits="userSpaceOnUse" x="0" y="0" width="75" height="75">
<path d="M0 0H75V75H0V0Z" fill="white"/>
</mask>
<g mask="url(#mask0_55_251)">
<path d="M39.9805 37.8535C40.0957 38.9648 39.7871 40.123 39.0273 41.0547L38.9453 41.1465C38.4746 41.6211 37.7109 41.6211 37.2402 41.1504C36.7812 40.6914 36.7695 39.9531 37.207 39.4805C37.5117 39.0742 37.6367 38.5762 37.5859 38.0996C37.5371 37.6191 37.3144 37.1602 36.9336 36.8242L35.4609 35.623C35.043 35.2832 34.5215 35.1465 34.0195 35.1973C33.5176 35.248 33.0352 35.4883 32.6973 35.9062C32.3574 36.3223 32.2187 36.8457 32.2715 37.3457C32.3223 37.8477 32.5644 38.3281 32.9805 38.6699L34.3965 39.8223C35.332 40.582 35.8691 41.6523 35.9824 42.7656C36.0957 43.8789 35.7871 45.0352 35.0273 45.9688C34.2676 46.9023 33.1973 47.4414 32.084 47.5566C31.0625 47.6602 30.0039 47.4043 29.1152 46.7734L28.1914 47.9102C27.7715 48.4238 27.0137 48.5039 26.498 48.084C25.9844 47.6641 25.9062 46.9063 26.3242 46.3926L27.25 45.2539C26.4512 44.5117 25.9824 43.5273 25.8789 42.5059C25.7656 41.3945 26.0742 40.2363 26.834 39.3027L26.916 39.2109C27.3867 38.7363 28.1484 38.7363 28.6211 39.207C29.0801 39.6641 29.0898 40.4043 28.6562 40.875C28.3496 41.2832 28.2266 41.7793 28.2754 42.2578C28.3242 42.7383 28.5469 43.1973 28.9277 43.5332L30.4004 44.7344C30.8184 45.0742 31.3379 45.2109 31.8418 45.1602C32.3437 45.1113 32.8262 44.8691 33.1641 44.4512C33.5039 44.0352 33.6406 43.5137 33.5898 43.0117C33.5391 42.5098 33.2969 42.0293 32.8789 41.6875L31.4629 40.5352C30.5293 39.7754 29.9922 38.7051 29.8789 37.5918C29.7637 36.4785 30.0723 35.3223 30.832 34.3887C31.5918 33.4551 32.6621 32.916 33.7754 32.8008C34.7988 32.6973 35.8574 32.9531 36.7461 33.584L37.6699 32.4473C38.0898 31.9336 38.8477 31.8535 39.3613 32.2734C39.8769 32.6934 39.9551 33.4512 39.5352 33.9648L38.6094 35.1035C39.4082 35.8457 39.8769 36.8301 39.9805 37.8535ZM31.3906 55.6797L18.0664 44.8398C17.5527 44.4199 16.7949 44.498 16.375 45.0137C15.957 45.5273 16.0352 46.2852 16.5488 46.7051L29.873 57.5449C30.3867 57.9648 31.1445 57.8848 31.5644 57.3711C31.9844 56.8555 31.9043 56.0977 31.3906 55.6797ZM27.8887 59.9805L14.5664 49.1406C14.0508 48.7227 13.293 48.8008 12.875 49.3145C12.4551 49.8301 12.5332 50.5879 13.0488 51.0059L26.3711 61.8477C26.8867 62.2656 27.6445 62.1875 28.0625 61.6738C28.4824 61.1582 28.4043 60.4004 27.8887 59.9805ZM75 17.4805C75 22.3066 73.043 26.6758 69.8809 29.8398C66.7187 33 62.3477 34.9551 57.5176 34.957C56.8574 34.957 56.2148 34.9277 55.5859 34.8633C55.3769 34.8438 55.1699 34.8164 54.9629 34.7891L54.0977 42.0371C54.0664 42.3027 53.9512 42.5371 53.7832 42.7168L28.0019 74.4062C27.582 74.9219 26.8242 75 26.3105 74.5801L0.593745 53.6543C0.0781203 53.2363 -4.79817e-06 52.4766 0.419917 51.9629L26.2539 20.2129C26.4043 20.0293 26.5957 19.9004 26.8066 19.832L40.168 15.3496C40.6504 11.375 42.4687 7.81055 45.1582 5.11914C48.3223 1.95703 52.6914 0 57.5195 0C62.3457 0 66.7168 1.95703 69.8809 5.11914C73.043 8.2832 75 12.6562 75 17.4805ZM51.748 41.4141L53.6992 25.0703L43.5019 16.7715L42.4609 17.1211C42.457 17.2422 42.4512 17.3633 42.4512 17.4824C42.4512 19.2383 42.7598 20.9102 43.3144 22.4609C43.4551 22.4336 43.5957 22.416 43.7402 22.4043H43.748C44.9082 22.3125 46 22.6992 46.8242 23.4004C47.6543 24.1035 48.2129 25.123 48.3086 26.291V26.2969C48.4023 27.457 48.0137 28.5488 47.3125 29.375C46.6094 30.2031 45.5879 30.7656 44.4199 30.8594C43.2578 30.9551 42.1641 30.5645 41.3359 29.8633C40.5078 29.1602 39.9453 28.1387 39.8516 26.9707C39.7578 25.8086 40.1465 24.7129 40.8477 23.8867C40.9453 23.7715 41.0488 23.6641 41.1562 23.5605C40.4902 21.7988 40.0957 19.9082 40.043 17.9297L27.8984 22.002L3.04492 52.5469L26.8965 71.9531L51.748 41.4141ZM42.2539 26.7812C42.2969 27.2852 42.5352 27.7227 42.8906 28.0234C43.1797 28.2695 43.5488 28.4219 43.9453 28.4531C43.3496 27.7012 42.8144 26.9043 42.3379 26.0664C42.2656 26.2891 42.2344 26.5312 42.2539 26.7812ZM45.9043 26.5215L45.8984 26.4414C45.8496 25.9551 45.6113 25.5313 45.2656 25.2383C45.0234 25.0313 44.7266 24.8906 44.4004 24.834C44.832 25.5977 45.3203 26.3242 45.8672 27.0059C45.9004 26.8496 45.9141 26.6855 45.9043 26.5215ZM72.5859 17.4805C72.5859 13.3203 70.9004 9.55273 68.1738 6.82617C65.4473 4.09961 61.6797 2.41406 57.5195 2.41406C53.3574 2.41406 49.5898 4.10156 46.8633 6.82617C44.8086 8.87891 43.3477 11.5254 42.748 14.4844L43.3633 14.2773C43.7754 14.1387 44.2129 14.2383 44.5234 14.5L55.7344 23.623C56.0644 23.8926 56.2148 24.3027 56.1699 24.6973L55.25 32.4004C55.4414 32.4277 55.6328 32.4512 55.8242 32.4707C56.3848 32.5254 56.9512 32.5547 57.5195 32.5547C61.6758 32.5527 65.4453 30.8633 68.1758 28.1348C70.9004 25.4082 72.5859 21.6426 72.5859 17.4805Z" fill="#2C565C"/>
</g>
</svg>
