<svg width="99" height="75" viewBox="0 0 99 75" fill="none" xmlns="http://www.w3.org/2000/svg">
<path d="M49.4139 9.59635C54.6889 9.59635 58.9794 13.8868 58.9794 19.1619C58.9794 24.437 54.6889 28.7275 49.4139 28.7275C44.1388 28.7275 39.8483 24.437 39.8483 19.1619C39.8483 13.8868 44.1388 9.59635 49.4139 9.59635ZM49.4139 31.5655C52.7275 31.5655 55.8432 30.275 58.1851 27.9331C60.527 25.5886 61.8175 22.4755 61.8175 19.1619C61.8175 15.8483 60.527 12.7326 58.1851 10.3907C55.8432 8.04879 52.7275 6.7583 49.4139 6.7583C46.1002 6.7583 42.9871 8.04879 40.6426 10.3907C38.3007 12.7326 37.0103 15.8483 37.0103 19.1619C37.0103 22.4755 38.3007 25.5886 40.6426 27.9331C42.9871 30.275 46.1002 31.5655 49.4139 31.5655Z" fill="#2C565C"/>
<mask id="mask0_55_311" style="mask-type:luminance" maskUnits="userSpaceOnUse" x="30" y="33" width="39" height="42">
<path d="M30.6375 33.4038H68.1491V75.0002H30.6375V33.4038Z" fill="white"/>
</mask>
<g mask="url(#mask0_55_311)">
<path d="M65.2468 44.5271L63.856 59.5682C63.6401 60.7353 62.9383 61.7533 61.9228 62.3677C60.8971 62.9898 59.6529 63.1389 58.509 62.7739L54.0231 61.3394L56.5989 60.5014C57.8689 60.0952 58.7403 58.941 58.784 57.6119L59.7917 46.7816C59.8663 46.0027 59.2905 45.3112 58.5115 45.2392C57.7326 45.1672 57.0385 45.7379 56.9665 46.5194L56.4884 51.6453L42.5784 53.3934L42.0514 46.6531C41.9922 45.8716 41.3084 45.288 40.5269 45.3497C39.7455 45.4114 39.1619 46.0926 39.2236 46.8741L39.766 53.8073C39.766 53.8202 39.7686 53.833 39.7686 53.8459C39.8457 54.5734 40.2056 55.2238 40.7789 55.6736C41.2596 56.0515 41.838 56.252 42.437 56.252C42.5527 56.252 42.6735 56.2443 42.7917 56.2263L56.2185 54.5425L55.9537 57.3986C55.9485 57.4371 55.9485 57.4731 55.946 57.5117C55.946 57.6428 55.8611 57.7585 55.7326 57.7996L40.3213 62.7739C39.1773 63.1389 37.9305 62.9898 36.9048 62.3677C35.892 61.7559 35.1928 60.7405 34.9742 59.5785L33.6143 45.0721C33.6143 45.0515 33.6118 45.0309 33.6092 45.0104C33.2699 42.5477 33.8791 40.2803 35.3239 38.6196C36.6401 37.1132 38.5269 36.2829 40.6375 36.2829H58.3316C60.0514 36.2829 61.3547 36.815 62.5938 37.7533C62.7866 37.9204 62.982 38.0875 63.1773 38.252C63.2982 38.3677 63.4138 38.486 63.527 38.6094C64.8869 40.1261 65.4987 42.2289 65.2468 44.5271ZM65.0694 36.1183C63.2365 34.3934 61.0437 33.4448 58.3316 33.4448H40.6375C37.694 33.4448 35.0462 34.6196 33.185 36.7559C32.2133 37.8716 31.5089 39.1826 31.0951 40.6531C30.6735 42.1466 30.5706 43.7302 30.7917 45.3651L32.1568 59.9024C32.1593 59.941 32.1645 59.977 32.1696 60.013C32.5167 62.0053 33.7043 63.7482 35.4344 64.7945C35.9614 65.1158 36.5218 65.36 37.1028 65.5297L37.0976 73.5811C37.0976 74.3652 37.7326 75.0001 38.5167 75.0001C39.3007 75.0001 39.9357 74.3652 39.9357 73.5811L39.9408 65.7508C40.3599 65.6968 40.7763 65.6068 41.1876 65.4757L49.3804 62.8356L57.6452 65.4783C58.0539 65.6068 58.4704 65.6968 58.8869 65.7508L58.8817 73.5811C58.8817 74.3652 59.5167 75.0001 60.3007 75.0001C61.0848 75.0001 61.7198 74.3652 61.7198 73.5811L61.7249 65.54L61.874 65.4834C62.4036 65.3189 62.9126 65.0875 63.3959 64.7945C65.1234 63.7482 66.3136 62.0053 66.6581 60.013C66.6632 59.9847 66.6683 59.9538 66.6709 59.9256L68.0668 44.8202C68.0668 44.8176 68.0668 44.8176 68.0668 44.8176C68.1825 43.7585 68.1594 42.725 68 41.7379C67.8174 40.4577 66.9049 37.7585 65.0694 36.1183Z" fill="#2C565C"/>
</g>
<mask id="mask1_55_311" style="mask-type:luminance" maskUnits="userSpaceOnUse" x="6" y="0" width="26" height="26">
<path d="M6.25189 0H31.2596V25.3368H6.25189V0Z" fill="white"/>
</mask>
<g mask="url(#mask1_55_311)">
<path d="M18.8432 2.85856C24.1157 2.85856 28.4087 7.14905 28.4087 12.4241C28.4087 17.6992 24.1157 21.9897 18.8432 21.9897C13.5681 21.9897 9.27505 17.6992 9.27505 12.4241C9.27505 7.14905 13.5681 2.85856 18.8432 2.85856ZM18.8432 24.8277C22.1542 24.8277 25.2699 23.5372 27.6118 21.1953C29.9563 18.8534 31.2468 15.7377 31.2468 12.4241C31.2468 9.11049 29.9563 5.99738 27.6118 3.6529C25.2699 1.311 22.1542 0.0205078 18.8432 0.0205078C15.5296 0.0205078 12.4139 1.311 10.072 3.6529C7.72749 5.99738 6.43958 9.11049 6.43958 12.4241C6.43958 15.7377 7.72749 18.8534 10.072 21.1953C12.4139 23.5372 15.5296 24.8277 18.8432 24.8277Z" fill="#2C565C"/>
</g>
<mask id="mask2_55_311" style="mask-type:luminance" maskUnits="userSpaceOnUse" x="67" y="0" width="26" height="26">
<path d="M67.4551 0H92.4628V25.3368H67.4551V0Z" fill="white"/>
</mask>
<g mask="url(#mask2_55_311)">
<path d="M79.9872 2.85856C85.2623 2.85856 89.5528 7.14905 89.5528 12.4241C89.5528 17.6992 85.2623 21.9897 79.9872 21.9897C74.7122 21.9897 70.4217 17.6992 70.4217 12.4241C70.4217 7.14905 74.7122 2.85856 79.9872 2.85856ZM79.9872 24.8277C83.3009 24.8277 86.414 23.5372 88.7584 21.1953C91.1003 18.8534 92.3908 15.7377 92.3908 12.4241C92.3908 9.11306 91.1003 5.99738 88.7584 3.65547C86.414 1.311 83.3009 0.0205078 79.9872 0.0205078C76.6736 0.0205078 73.5579 1.311 71.216 3.65547C68.8741 5.99738 67.5836 9.11306 67.5836 12.4241C67.5836 15.7377 68.8741 18.8534 71.216 21.1953C73.5579 23.5372 76.6736 24.8277 79.9872 24.8277Z" fill="#2C565C"/>
</g>
<mask id="mask3_55_311" style="mask-type:luminance" maskUnits="userSpaceOnUse" x="64" y="26" width="35" height="43">
<path d="M64.4885 26.6763H98.7121V68.2778H64.4885V26.6763Z" fill="white"/>
</mask>
<g mask="url(#mask3_55_311)">
<path d="M98.5733 35.0032C98.3908 33.7229 97.4782 31.0211 95.6428 29.381C93.8098 27.6561 91.617 26.7075 88.9024 26.7075H71.2109C68.8921 26.7075 66.7584 27.4376 65.0463 28.7924C64.725 29.052 64.5219 29.4479 64.5219 29.8952C64.5219 30.6767 65.1569 31.3116 65.9409 31.3116C66.2931 31.3116 66.6145 31.1831 66.8638 30.9697V30.9723C68.0695 30.0391 69.5708 29.5456 71.2109 29.5456H88.9024C90.6222 29.5456 91.9281 30.0777 93.1672 31.016C93.3574 31.1857 93.5528 31.3502 93.7507 31.5147C93.8715 31.6304 93.9872 31.7487 94.0978 31.8746C95.4577 33.3913 96.0695 35.4916 95.8201 37.7924L94.4268 52.8309C94.2134 53.998 93.5116 55.016 92.4962 55.633C91.4679 56.2551 90.2237 56.4016 89.0798 56.0366L84.5939 54.6047L87.1697 53.7641C88.4397 53.3605 89.3111 52.2037 89.3548 50.8772L90.3651 40.0469C90.4371 39.2654 89.8638 38.5739 89.0823 38.5019C88.3034 38.4299 87.6119 39.0032 87.5399 39.7846L87.0618 44.908L73.0335 46.6561C72.324 46.7332 71.7713 47.3348 71.7713 48.0674C71.7713 48.8515 72.4062 49.4865 73.1903 49.4865C73.2469 49.4865 73.3034 49.4813 73.3574 49.4762L86.7918 47.8052L86.5245 50.6613C86.5219 50.6998 86.5194 50.7384 86.5194 50.7744C86.5168 50.9055 86.4319 51.0212 86.3034 51.0623L71.4602 55.8541C70.8612 56.0212 70.4217 56.5713 70.4217 57.2217C70.4217 58.0057 71.0566 58.6407 71.8407 58.6407C72.0103 58.6407 72.1749 58.6099 72.3265 58.5559L79.9512 56.0983L88.2186 58.741C88.6248 58.8721 89.0412 58.962 89.4602 59.016L89.4551 66.8438C89.4551 67.6279 90.09 68.2628 90.8741 68.2628C91.6582 68.2628 92.2931 67.6279 92.2931 66.8438L92.2983 58.8052L92.4474 58.7487C92.9744 58.5816 93.4859 58.3528 93.9667 58.0597C95.6942 57.0109 96.8844 55.2679 97.2314 53.2757C97.234 53.2474 97.2392 53.2191 97.2417 53.1883L98.6376 38.0828H98.6402C98.7559 37.0212 98.7302 35.9877 98.5733 35.0032Z" fill="#2C565C"/>
</g>
<path d="M26.2828 46.465C26.2828 45.681 25.6478 45.046 24.8638 45.046C24.7764 45.046 24.689 45.0563 24.6041 45.0717L12.0077 46.6553L11.4807 39.9175C11.419 39.136 10.7352 38.5524 9.95631 38.6115C9.17481 38.6732 8.5887 39.357 8.65039 40.1385L9.19281 47.0691C9.19281 47.082 9.19538 47.0974 9.19538 47.1103C9.27507 47.8352 9.6324 48.4856 10.2082 48.938C10.6864 49.3134 11.2648 49.5139 11.8638 49.5139C11.982 49.5139 12.1003 49.5062 12.2185 49.4907L24.9974 47.8789C25.7198 47.8095 26.2828 47.2028 26.2828 46.465Z" fill="#2C565C"/>
<mask id="mask4_55_311" style="mask-type:luminance" maskUnits="userSpaceOnUse" x="0" y="26" width="35" height="43">
<path d="M0 26.6528H34.5501V68.7711H0V26.6528Z" fill="white"/>
</mask>
<g mask="url(#mask4_55_311)">
<path d="M31.9229 30.905C32.1774 31.1363 32.5142 31.2803 32.8844 31.2803C33.6685 31.2803 34.3034 30.6453 34.3034 29.8613C34.3034 29.3908 34.0746 28.9718 33.7199 28.7147C32.0515 27.414 30.0978 26.707 27.7584 26.707H10.0669C7.12088 26.707 4.47563 27.8844 2.61188 30.0207C1.64016 31.1338 0.938357 32.4448 0.521904 33.9153C0.10031 35.4088 5.28478e-05 36.995 0.221133 38.6299L1.5836 53.1672C1.58617 53.2032 1.59131 53.2392 1.59903 53.2752C1.9435 55.2675 3.13373 57.0104 4.86124 58.0592C5.38823 58.378 5.95121 58.6222 6.52962 58.7919L6.52448 66.8433C6.52448 67.6274 7.15944 68.2623 7.9435 68.2623C8.72756 68.2623 9.36253 67.6274 9.36253 66.8433L9.36767 59.013C9.78669 58.9616 10.2057 58.869 10.6145 58.7405L18.8073 56.0978L25.8561 58.3703C25.8587 58.3703 25.8612 58.3703 25.8612 58.3729H25.8638C25.9949 58.414 26.1363 58.4346 26.2828 58.4346C27.0669 58.4346 27.7019 57.7996 27.7019 57.0155C27.7019 56.3754 27.2777 55.8356 26.6942 55.6582L23.4499 54.6042L25.9487 53.7765C26.5425 53.6068 26.9795 53.0618 26.9795 52.4114C26.9795 51.6299 26.342 50.9924 25.5605 50.9924C25.3754 50.9924 25.198 51.0284 25.0361 51.0952V51.0927L9.74813 56.0361C8.60417 56.4011 7.35995 56.2546 6.33168 55.6325C5.32139 55.0181 4.61959 54.0027 4.40365 52.8407L3.04376 38.3343C3.04119 38.3137 3.03862 38.2932 3.03604 38.2726C2.69671 35.8124 3.30597 33.5425 4.7507 31.8844C6.06689 30.3754 7.95379 29.5451 10.0669 29.5451H27.7584C29.4602 29.5451 30.6967 29.9847 31.9229 30.905Z" fill="#2C565C"/>
</g>
</svg>
