<svg width="70" height="75" viewBox="0 0 70 75" fill="none" xmlns="http://www.w3.org/2000/svg">
<path d="M30.5048 10.2891L29.4696 14.6934C29.3603 15.1543 29.5399 15.6348 29.9247 15.9141C30.1298 16.0645 30.3739 16.1387 30.6181 16.1387C30.829 16.1387 31.0399 16.082 31.2294 15.9688L35.1103 13.625L38.9892 15.9688C39.3954 16.2148 39.9091 16.1934 40.2939 15.9141C40.6786 15.6348 40.8583 15.1543 40.7489 14.6934L39.7138 10.2891L43.1474 7.33203C43.5067 7.02344 43.6454 6.5293 43.4989 6.07812C43.3524 5.62891 42.9482 5.30859 42.4755 5.26953L37.954 4.89062L36.1962 0.720703C36.0126 0.283203 35.5849 0 35.1083 0C34.6337 0 34.206 0.283203 34.0224 0.720703L32.2646 4.89062L27.7431 5.26953C27.2704 5.30859 26.8661 5.62891 26.7196 6.07812C26.5732 6.5293 26.7118 7.02344 27.0712 7.33203L30.5048 10.2891ZM33.1728 7.17578C33.6103 7.13867 33.9911 6.86328 34.161 6.45898L35.1103 4.21289L36.0575 6.45898C36.2274 6.86328 36.6083 7.13867 37.0458 7.17578L39.4814 7.38086L37.6317 8.97266C37.2997 9.25977 37.1532 9.70508 37.2528 10.1328L37.8114 12.5059L35.7216 11.2441C35.3446 11.0156 34.8739 11.0156 34.4989 11.2441L32.4071 12.5059L32.9657 10.1328C33.0653 9.70703 32.9208 9.25977 32.5888 8.97266L30.7372 7.38086L33.1728 7.17578ZM10.2899 20.9062L14.8134 20.5742L17.204 24.4199C17.4228 24.7695 17.8036 24.9766 18.2079 24.9766C18.2685 24.9766 18.331 24.9707 18.3915 24.9609C18.8603 24.8867 19.2392 24.541 19.3524 24.0801L20.4345 19.6875L24.8407 18.6074C25.3017 18.4941 25.6493 18.1172 25.7235 17.6484C25.7978 17.1816 25.5849 16.7148 25.1806 16.4648L21.3251 14.0801L21.6571 9.56836C21.6923 9.0957 21.4403 8.64844 21.0165 8.43359C20.5927 8.21875 20.0829 8.27734 19.7196 8.58398L16.2548 11.5039L12.0536 9.79492C11.6142 9.61523 11.1103 9.7168 10.7743 10.0527C10.4384 10.3867 10.3368 10.8906 10.5165 11.3281L12.2314 15.5176L9.30167 18.9727C8.99502 19.3359 8.93643 19.8457 9.15323 20.2676C9.36807 20.6895 9.81534 20.9414 10.2899 20.9062ZM14.6845 15.2891L13.7606 13.0312L16.0243 13.9531C16.4306 14.1172 16.8954 14.0449 17.2314 13.7617L19.0985 12.1875L18.9208 14.6191C18.8876 15.0566 19.1024 15.4746 19.4755 15.7051L21.5536 16.9902L19.1786 17.5723C18.7528 17.6758 18.4189 18.0078 18.3134 18.4336L17.7314 20.8008L16.4423 18.7285C16.2274 18.3809 15.8466 18.1719 15.4403 18.1719C15.411 18.1719 15.3837 18.1738 15.3544 18.1758L12.9149 18.3535L14.4931 16.4922C14.7763 16.1582 14.8505 15.6934 14.6845 15.2891ZM1.4169 35.4062L5.59854 37.1602L5.9794 41.668C6.01846 42.1406 6.33877 42.543 6.78995 42.6875C6.90909 42.7266 7.03213 42.7461 7.15518 42.7461C7.49112 42.7461 7.81924 42.6016 8.04776 42.3379L11.0126 38.9141L15.4286 39.9473C15.8915 40.0547 16.3739 39.875 16.6513 39.4922C16.9306 39.1094 16.9521 38.5977 16.706 38.1914L14.3564 34.3223L16.706 30.4512C16.9521 30.0469 16.9306 29.5332 16.6513 29.1504C16.3739 28.7676 15.8896 28.5898 15.4286 28.6973L11.0126 29.7305L8.04776 26.3047C7.73721 25.9473 7.24112 25.8086 6.78995 25.9551C6.33877 26.1016 6.01846 26.5039 5.9794 26.9746L5.59854 31.4844L1.4169 33.2363C0.9794 33.4199 0.694243 33.8477 0.694243 34.3223C0.694243 34.7949 0.9794 35.2227 1.4169 35.4062ZM7.17276 33.377C7.57706 33.207 7.8544 32.8281 7.88956 32.3906L8.09463 29.9609L9.69229 31.8066C9.9794 32.1387 10.4267 32.2832 10.8544 32.1836L13.2353 31.627L11.9696 33.7129C11.7411 34.0879 11.7411 34.5566 11.9696 34.9316L13.2353 37.0176L10.8544 36.4609C10.4267 36.3613 9.9794 36.5059 9.69229 36.8379L8.09463 38.6816L7.88956 36.252C7.8544 35.8164 7.57706 35.4355 7.17276 35.2676L4.91885 34.3223L7.17276 33.377ZM45.3778 18.6074L49.7841 19.6875L50.8661 24.0801C50.9794 24.541 51.3583 24.8887 51.8271 24.9609C51.8896 24.9707 51.9501 24.9766 52.0107 24.9766C52.4149 24.9766 52.7958 24.7695 53.0146 24.4199L55.4052 20.5742L59.9286 20.9062C60.4032 20.9414 60.8505 20.6895 61.0653 20.2676C61.2821 19.8457 61.2235 19.3359 60.9169 18.9727L57.9872 15.5176L59.7021 11.3281C59.8817 10.8906 59.7802 10.3867 59.4442 10.0527C59.1083 9.7168 58.6044 9.61719 58.1649 9.79492L53.9638 11.5039L50.4989 8.58398C50.1357 8.2793 49.6239 8.21875 49.2021 8.43359C48.7782 8.65039 48.5263 9.0957 48.5614 9.56836L48.8935 14.0801L45.038 16.4648C44.6337 16.7148 44.4208 17.1816 44.495 17.6484C44.5692 18.1172 44.9169 18.4941 45.3778 18.6074ZM50.7431 15.7051C51.1161 15.4746 51.331 15.0566 51.2978 14.6191L51.12 12.1875L52.9872 13.7617C53.3232 14.0449 53.788 14.1172 54.1942 13.9531L56.4579 13.0312L55.5341 15.2891C55.3681 15.6934 55.4423 16.1582 55.7255 16.4922L57.3036 18.3555L54.8642 18.1758C54.4247 18.1426 54.0067 18.3574 53.7763 18.7285L52.4872 20.8008L51.9052 18.4336C51.7997 18.0078 51.4677 17.6758 51.0399 17.5723L48.6669 16.9902L50.7431 15.7051ZM68.8017 33.2363L64.62 31.4844L64.2392 26.9746C64.2001 26.5039 63.8798 26.1016 63.4286 25.9551C62.9774 25.8086 62.4814 25.9473 62.1708 26.3047L59.206 29.7305L54.7899 28.6973C54.3271 28.5898 53.8446 28.7676 53.5673 29.1504C53.288 29.5352 53.2665 30.0469 53.5126 30.4512L55.8622 34.3223L53.5126 38.1914C53.2665 38.5977 53.288 39.1094 53.5673 39.4922C53.8466 39.875 54.329 40.0547 54.7899 39.9473L59.206 38.9141L62.1708 42.3379C62.3993 42.6016 62.7274 42.7461 63.0634 42.7461C63.1864 42.7461 63.3095 42.7266 63.4286 42.6895C63.8798 42.543 64.2001 42.1406 64.2392 41.668L64.62 37.1602L68.8017 35.4062C69.2392 35.2227 69.5243 34.7949 69.5243 34.3223C69.5243 33.8477 69.2392 33.4199 68.8017 33.2363ZM63.0458 35.2656C62.6415 35.4355 62.3642 35.8164 62.3271 36.252L62.1239 38.6816L60.5263 36.8359C60.2997 36.5742 59.9716 36.4277 59.6337 36.4277C59.5439 36.4277 59.454 36.4395 59.3642 36.459L56.9833 37.0156L58.2489 34.9316C58.4774 34.5566 58.4774 34.0859 58.2489 33.7129L56.9833 31.627L59.3642 32.1836C59.7899 32.2832 60.2392 32.1387 60.5263 31.8066L62.1239 29.9609L62.3271 32.3906C62.3642 32.8262 62.6415 33.207 63.0458 33.377L65.2997 34.3223L63.0458 35.2656ZM51.6415 49.7637C50.3427 49.418 48.9911 49.5938 47.8329 50.2598L35.4384 57.3965C35.3329 56.7715 35.1161 56.1602 34.7899 55.5918C34.0673 54.332 32.9032 53.4316 31.5107 53.0527L17.204 49.1699C17.1532 49.1562 17.1024 49.1465 17.0497 49.1387C14.8329 48.8457 12.8095 49.3848 11.0341 50.7402L7.46377 53.4688L7.38565 53.1797C7.24698 52.6602 6.91104 52.2246 6.44229 51.9551C5.97354 51.6836 5.42666 51.6133 4.90518 51.752L1.50088 52.6621C0.422759 52.9492 -0.219819 54.0586 0.0692435 55.1348L5.00479 73.502C5.14542 74.0234 5.4794 74.459 5.94815 74.7285C6.2626 74.9082 6.60831 75 6.95987 75C7.13565 75 7.31143 74.9766 7.48526 74.9316L10.8896 74.0215C11.9677 73.7324 12.6103 72.623 12.3212 71.5469L12.1689 70.9824C14.1005 69.5762 15.8837 69.1836 18.0341 69.6758L26.2294 71.5488C26.956 71.7148 27.663 71.7988 28.3524 71.7988C29.7802 71.7988 31.1239 71.4414 32.3603 70.7285L52.8524 58.9297C55.2489 57.5488 56.0732 54.4824 54.6884 52.0918C54.0204 50.9375 52.9384 50.1113 51.6415 49.7637ZM7.19815 72.5723L2.43448 54.8477L5.19424 54.1113L9.95596 71.834L7.19815 72.5723ZM51.6728 56.8926L31.1806 68.6914C29.8622 69.4492 28.4149 69.6348 26.7567 69.2559L18.5614 67.3828C15.9931 66.7949 13.7665 67.1621 11.5224 68.5742L8.12393 55.9277L12.4696 52.6094C13.7274 51.6484 15.1005 51.2734 16.6649 51.4629L30.8915 55.3242C31.6767 55.5371 32.3329 56.0469 32.7431 56.7598C33.1513 57.4727 33.2587 58.2969 33.0458 59.0781C32.6005 60.707 30.913 61.6699 29.2802 61.2266L21.6376 59.1523C21.0087 58.9824 20.3622 59.3516 20.1903 59.9785C20.0185 60.6055 20.3896 61.252 21.0185 61.4238L28.661 63.498C29.1357 63.627 29.6142 63.6875 30.0849 63.6875C32.2665 63.6875 34.286 62.3633 35.1181 60.2988L49.0126 52.2969C49.6239 51.9453 50.3407 51.8535 51.0302 52.0371C51.7196 52.2207 52.2919 52.6582 52.6454 53.2676C53.3798 54.5352 52.9423 56.1602 51.6728 56.8926ZM35.1083 18.6953C26.4696 18.6953 19.4403 25.7051 19.4403 34.3223C19.4403 42.9395 26.4696 49.9492 35.1083 49.9492C43.7489 49.9492 50.7782 42.9395 50.7782 34.3223C50.7782 25.7051 43.7489 18.6953 35.1083 18.6953ZM27.2392 45.0195C29.0282 42.457 31.9618 40.9023 35.1083 40.9023C38.2567 40.9023 41.1903 42.457 42.9794 45.0195C40.7724 46.6387 38.0517 47.5957 35.1083 47.5957C32.1669 47.5957 29.4442 46.6387 27.2392 45.0195ZM35.1083 37.9883C32.5497 37.9883 30.4696 35.9121 30.4696 33.3613C30.4696 30.8086 32.5497 28.7324 35.1083 28.7324C37.6689 28.7324 39.7489 30.8086 39.7489 33.3613C39.7489 35.9121 37.6689 37.9883 35.1083 37.9883ZM44.7567 43.457C43.2939 41.457 41.2607 39.9746 38.956 39.1875C40.8544 37.9375 42.1083 35.793 42.1083 33.3613C42.1083 29.5117 38.9696 26.3809 35.1083 26.3809C31.2489 26.3809 28.1103 29.5117 28.1103 33.3613C28.1103 35.793 29.3661 37.9395 31.2626 39.1875C28.9579 39.9746 26.9247 41.457 25.4618 43.457C23.1923 41.0742 21.7997 37.8574 21.7997 34.3223C21.7997 27.002 27.7704 21.0469 35.1083 21.0469C42.4482 21.0469 48.4189 27.002 48.4189 34.3223C48.4189 37.8574 47.0263 41.0742 44.7567 43.457Z" fill="#2C565C"/>
</svg>
