<svg width="89" height="70" viewBox="0 0 89 70" fill="none" xmlns="http://www.w3.org/2000/svg">
<mask id="mask0_67_355" style="mask-type:luminance" maskUnits="userSpaceOnUse" x="0" y="0" width="14" height="63">
<path d="M0 0H13.8819V62.2653H0V0Z" fill="white"/>
</mask>
<g mask="url(#mask0_67_355)">
<path fill-rule="evenodd" clip-rule="evenodd" d="M12.4858 62.1741H1.16753C0.547967 62.1741 0.0472412 61.6723 0.0472412 61.0516V1.13065C0.0472412 0.509936 0.547967 0.00805664 1.16753 0.00805664H12.4858C13.1053 0.00805664 13.6061 0.509936 13.6061 1.13065V61.0516C13.6061 61.6723 13.1053 62.1741 12.4858 62.1741ZM2.28666 59.9301H11.3655V2.25209H2.28666V59.9301Z" fill="#9EC9D0"/>
</g>
<mask id="mask1_67_355" style="mask-type:luminance" maskUnits="userSpaceOnUse" x="0" y="59" width="89" height="11">
<path d="M0 59.9025H88.3123V70H0V59.9025Z" fill="white"/>
</mask>
<g mask="url(#mask1_67_355)">
<path fill-rule="evenodd" clip-rule="evenodd" d="M87.1446 69.9919H1.16753C0.547967 69.9919 0.0472412 69.49 0.0472412 68.8693V61.0515C0.0472412 60.4342 0.547967 59.9301 1.16753 59.9301H87.1446C87.7642 59.9301 88.2649 60.4342 88.2649 61.0515V68.8693C88.2649 69.49 87.7642 69.9919 87.1446 69.9919ZM2.28666 67.7478H86.0243V62.1741H2.28666V67.7478Z" fill="#9EC9D0"/>
</g>
<mask id="mask2_67_355" style="mask-type:luminance" maskUnits="userSpaceOnUse" x="11" y="0" width="33" height="9">
<path d="M11.2237 0H43.4178V8.21466H11.2237V0Z" fill="white"/>
</mask>
<g mask="url(#mask2_67_355)">
<path fill-rule="evenodd" clip-rule="evenodd" d="M42.1071 8.18695H12.4859C11.8663 8.18695 11.3656 7.68623 11.3656 7.06551V1.13065C11.3656 0.509936 11.8663 0.00805664 12.4859 0.00805664H42.1071C42.7267 0.00805664 43.2274 0.509936 43.2274 1.13065V7.06551C43.2274 7.68623 42.7267 8.18695 42.1071 8.18695ZM13.6062 5.94407H40.9903V2.25209H13.6062V5.94407Z" fill="#9EC9D0"/>
</g>
<mask id="mask3_67_355" style="mask-type:luminance" maskUnits="userSpaceOnUse" x="40" y="0" width="12" height="16">
<path d="M40.7596 0H51.0972V15.0079H40.7596V0Z" fill="white"/>
</mask>
<g mask="url(#mask3_67_355)">
<path fill-rule="evenodd" clip-rule="evenodd" d="M49.8155 14.8452H42.1096C41.4912 14.8452 40.9905 14.3433 40.9905 13.7238V1.13065C40.9905 0.509936 41.4912 0.00805664 42.1096 0.00805664H49.8155C50.435 0.00805664 50.9358 0.509936 50.9358 1.13065V13.7238C50.9358 14.3433 50.435 14.8452 49.8155 14.8452ZM43.2276 12.6023H48.6952V2.25209H43.2276V12.6023Z" fill="#9EC9D0"/>
</g>
<mask id="mask4_67_355" style="mask-type:luminance" maskUnits="userSpaceOnUse" x="48" y="0" width="33" height="9">
<path d="M48.439 0H80.6331V8.21466H48.439V0Z" fill="white"/>
</mask>
<g mask="url(#mask4_67_355)">
<path fill-rule="evenodd" clip-rule="evenodd" d="M79.4401 8.18695H49.8154C49.1993 8.18695 48.6951 7.68623 48.6951 7.06551V1.13065C48.6951 0.509936 49.1993 0.00805664 49.8154 0.00805664H79.4401C80.0562 0.00805664 80.5592 0.509936 80.5592 1.13065V7.06551C80.5592 7.68623 80.0562 8.18695 79.4401 8.18695ZM50.9356 5.94407H78.3198V2.25209H50.9356V5.94407Z" fill="#9EC9D0"/>
</g>
<mask id="mask5_67_355" style="mask-type:luminance" maskUnits="userSpaceOnUse" x="78" y="0" width="11" height="16">
<path d="M78.27 0H88.3122V15.0079H78.27V0Z" fill="white"/>
</mask>
<g mask="url(#mask5_67_355)">
<path fill-rule="evenodd" clip-rule="evenodd" d="M87.1446 14.8452H79.4399C78.8203 14.8452 78.3196 14.3433 78.3196 13.7238V1.13065C78.3196 0.509936 78.8203 0.00805664 79.4399 0.00805664H87.1446C87.7641 0.00805664 88.2649 0.509936 88.2649 1.13065V13.7238C88.2649 14.3433 87.7641 14.8452 87.1446 14.8452ZM80.559 12.6023H86.0243V2.25209H80.559V12.6023Z" fill="#9EC9D0"/>
</g>
<path fill-rule="evenodd" clip-rule="evenodd" d="M87.1446 62.1741H42.1071C41.491 62.1741 40.9902 61.6722 40.9902 61.0515V13.7237C40.9902 13.103 41.491 12.6023 42.1071 12.6023H87.1446C87.7642 12.6023 88.2649 13.103 88.2649 13.7237V61.0515C88.2649 61.6722 87.7642 62.1741 87.1446 62.1741ZM43.2273 59.9301H86.0244V14.8452H43.2273V59.9301Z" fill="#9EC9D0"/>
<path fill-rule="evenodd" clip-rule="evenodd" d="M87.1446 38.5108H42.1094C41.491 38.5108 40.9902 38.0066 40.9902 37.3894C40.9902 36.7687 41.491 36.2679 42.1094 36.2679H87.1446C87.7642 36.2679 88.2649 36.7687 88.2649 37.3894C88.2649 38.0066 87.7642 38.5108 87.1446 38.5108Z" fill="#9EC9D0"/>
<path fill-rule="evenodd" clip-rule="evenodd" d="M81.7382 21.8462C81.1221 21.8462 80.6133 21.3443 80.6133 20.7236C80.6133 20.1041 81.1082 19.6022 81.7278 19.6022H81.7382C82.3577 19.6022 82.8585 20.1041 82.8585 20.7236C82.8585 21.3443 82.3577 21.8462 81.7382 21.8462Z" fill="#9EC9D0"/>
<path fill-rule="evenodd" clip-rule="evenodd" d="M81.7382 26.6781C81.1221 26.6781 80.6133 26.1739 80.6133 25.5566C80.6133 24.9359 81.1082 24.4352 81.7278 24.4352H81.7382C82.3577 24.4352 82.8585 24.9359 82.8585 25.5566C82.8585 26.1739 82.3577 26.6781 81.7382 26.6781Z" fill="#9EC9D0"/>
<path fill-rule="evenodd" clip-rule="evenodd" d="M81.7382 31.5077C81.1221 31.5077 80.6133 31.0058 80.6133 30.3862C80.6133 29.769 81.1082 29.2648 81.7278 29.2648H81.7382C82.3577 29.2648 82.8585 29.769 82.8585 30.3862C82.8585 31.0058 82.3577 31.5077 81.7382 31.5077Z" fill="#9EC9D0"/>
<path fill-rule="evenodd" clip-rule="evenodd" d="M81.7382 45.5119C81.1221 45.5119 80.6133 45.01 80.6133 44.3893C80.6133 43.7697 81.1082 43.2678 81.7278 43.2678H81.7382C82.3577 43.2678 82.8585 43.7697 82.8585 44.3893C82.8585 45.01 82.3577 45.5119 81.7382 45.5119Z" fill="#9EC9D0"/>
<path fill-rule="evenodd" clip-rule="evenodd" d="M81.7382 50.3414C81.1221 50.3414 80.6133 49.8396 80.6133 49.2189C80.6133 48.6016 81.1082 48.0974 81.7278 48.0974H81.7382C82.3577 48.0974 82.8585 48.6016 82.8585 49.2189C82.8585 49.8396 82.3577 50.3414 81.7382 50.3414Z" fill="#9EC9D0"/>
<path fill-rule="evenodd" clip-rule="evenodd" d="M81.7382 55.1733C81.1221 55.1733 80.6133 54.6714 80.6133 54.0519C80.6133 53.4311 81.1082 52.9304 81.7278 52.9304H81.7382C82.3577 52.9304 82.8585 53.4311 82.8585 54.0519C82.8585 54.6714 82.3577 55.1733 81.7382 55.1733Z" fill="#9EC9D0"/>
</svg>
