<svg width="75" height="70" viewBox="0 0 75 70" fill="none" xmlns="http://www.w3.org/2000/svg">
<mask id="mask0_20_131" style="mask-type:luminance" maskUnits="userSpaceOnUse" x="0" y="0" width="75" height="70">
<path d="M0 0H74.8663V70H0V0Z" fill="white"/>
</mask>
<g mask="url(#mask0_20_131)">
<path d="M74.415 2.07345C74.7201 1.70691 74.8419 1.2195 74.6587 0.732091C74.4754 0.305119 74.0494 0 73.561 0H1.30528C0.816892 0 0.390894 0.305119 0.207628 0.732091C0.0243613 1.15809 0.085775 1.70691 0.451333 2.07345L10.5729 12.9271L2.46337 18.7809C2.40293 18.8414 2.34151 18.9028 2.28107 18.9632L2.21966 19.0246C2.21966 19.0246 2.21966 19.0851 2.15922 19.0851C2.09781 19.2069 2.03639 19.2683 1.97595 19.3902C1.91454 19.512 1.91454 19.6339 1.91454 19.7557V19.8172C1.91454 19.8776 1.91454 19.939 1.91454 19.939L7.64649 61.0979C7.70791 61.7072 8.25673 62.1342 8.866 62.1342H11.4269C11.3664 62.3779 11.3664 62.683 11.3664 62.9267V65.6094C11.3664 67.988 13.317 70 15.756 70C18.195 70 20.1466 68.0484 20.1466 65.6094V62.9267C20.1466 62.683 20.1466 62.3779 20.0852 62.1342H54.7197C54.6592 62.3779 54.6592 62.683 54.6592 62.9267V65.6094C54.6592 67.988 56.6098 70 59.0488 70C61.4274 70 63.4394 68.0484 63.4394 65.6094V62.9267C63.4394 62.683 63.4394 62.3779 63.378 62.1342H65.9389C66.5491 62.1342 67.0365 61.7072 67.1584 61.0979L72.8903 19.939C72.8903 19.8776 72.8903 19.8776 72.8903 19.8172V19.7557C72.8903 19.6339 72.8903 19.512 72.8299 19.3902C72.7685 19.2683 72.7685 19.2069 72.7071 19.0851C72.7071 19.0851 72.7071 19.0246 72.6466 19.0246C72.6466 19.0246 72.6466 18.9632 72.5852 18.9632C72.5248 18.9028 72.4634 18.8414 72.4029 18.7809L64.232 12.9271L74.415 2.07345ZM6.97582 18.5362L12.8296 14.3289H62.0981L67.9519 18.5362H6.97582ZM70.695 2.439L61.8534 11.8899H12.8901L4.10984 2.439H70.695ZM17.7076 62.9881V65.6708C17.7076 66.7071 16.8537 67.6224 15.756 67.6224C14.6584 67.6224 13.8054 66.7685 13.8054 65.6708V62.9881C13.8054 62.683 13.8659 62.4393 13.9877 62.1956H17.4639C17.6462 62.3779 17.7076 62.683 17.7076 62.9881ZM60.939 62.9881V65.6708C60.939 66.7071 60.0861 67.6224 58.9884 67.6224C57.8908 67.6224 57.0368 66.7685 57.0368 65.6708V62.9881C57.0368 62.683 57.0982 62.4393 57.2201 62.1956H60.6953C60.8786 62.3779 60.939 62.683 60.939 62.9881ZM64.8412 59.6952H49.8417V40.3654C49.8417 39.6947 49.2928 39.1459 48.6222 39.1459C47.9515 39.1459 47.4027 39.6947 47.4027 40.3654V59.6952H27.4022V40.3654C27.4022 39.6947 26.8534 39.1459 26.1827 39.1459C25.5121 39.1459 24.9632 39.6947 24.9632 40.3654V59.6952H9.96365L4.59823 20.9752H70.2681L64.8412 59.6952ZM53.2565 27.1956C53.2565 27.8663 52.7076 28.4151 52.037 28.4151H47.4641C46.7934 28.4151 46.2446 27.8663 46.2446 27.1956C46.2446 26.5239 46.7934 25.9761 47.4641 25.9761H52.037C52.7076 25.9761 53.2565 26.5239 53.2565 27.1956ZM62.4022 27.1956C62.4022 27.8663 61.8534 28.4151 61.1827 28.4151H56.6098C55.9392 28.4151 55.3903 27.8663 55.3903 27.1956C55.3903 26.5239 55.9392 25.9761 56.6098 25.9761H61.1827C61.8534 25.9761 62.4022 26.5239 62.4022 27.1956ZM25.6339 27.1956C25.6339 27.8663 25.0861 28.4151 24.4144 28.4151H19.8415C19.1708 28.4151 18.622 27.8663 18.622 27.1956C18.622 26.5239 19.1708 25.9761 19.8415 25.9761H24.4144C25.0861 25.9761 25.6339 26.5239 25.6339 27.1956ZM16.4267 27.1956C16.4267 27.8663 15.8779 28.4151 15.2072 28.4151H10.5729C9.90223 28.4151 9.35341 27.8663 9.35341 27.1956C9.35341 26.5239 9.90223 25.9761 10.5729 25.9761H15.1468C15.8779 25.9761 16.4267 26.5239 16.4267 27.1956ZM34.8421 27.1956C34.8421 27.8663 34.2932 28.4151 33.6226 28.4151H29.0487C28.378 28.4151 27.8292 27.8663 27.8292 27.1956C27.8292 26.5239 28.378 25.9761 29.0487 25.9761H33.6226C34.2932 25.9761 34.8421 26.5239 34.8421 27.1956ZM44.0493 27.1956C44.0493 27.8663 43.5004 28.4151 42.8298 28.4151H38.2559C37.5852 28.4151 37.0364 27.8663 37.0364 27.1956C37.0364 26.5239 37.5852 25.9761 38.2559 25.9761H42.8298C43.5004 25.9761 44.0493 26.5239 44.0493 27.1956Z" fill="#9EC9D0"/>
</g>
</svg>
