<svg width="75" height="75" viewBox="0 0 75 75" fill="none" xmlns="http://www.w3.org/2000/svg">
<mask id="mask0_55_298" style="mask-type:luminance" maskUnits="userSpaceOnUse" x="0" y="0" width="75" height="75">
<path d="M0 0H75V75H0V0Z" fill="white"/>
</mask>
<g mask="url(#mask0_55_298)">
<path d="M41.9062 60.5918C38.3672 60.2539 34.9531 59.3125 31.7558 57.7988C30.6484 57.2754 29.3769 57.4355 28.4355 58.2227L26.1484 60.1309C25.7226 60.4863 25.1679 60.5234 24.6972 60.2324C22.7031 58.9961 20.8418 57.5195 19.166 55.8457C17.4902 54.1699 16.0137 52.3066 14.7773 50.3125C14.4863 49.8438 14.5254 49.2871 14.8808 48.8633L16.789 46.5762C17.5742 45.6348 17.7363 44.3613 17.2109 43.2539C15.6972 40.0566 14.7558 36.6426 14.416 33.1055C14.2617 31.5039 12.9336 30.2949 11.3262 30.2949L3.12693 30.2852C3.12498 30.2852 3.12498 30.2852 3.12303 30.2852C2.27537 30.2852 1.5117 30.6035 0.914042 31.2051C0.316385 31.8086 0.00583877 32.5762 0.0156043 33.4258C0.132792 44.4785 4.50193 54.8711 12.3203 62.6875C20.1367 70.5059 30.5293 74.875 41.582 74.9922C41.5937 74.9922 41.6054 74.9922 41.6172 74.9922C42.4531 74.9922 43.207 74.6816 43.8027 74.0938C44.4062 73.4961 44.7246 72.7305 44.7226 71.8828L44.7168 63.6875C44.7148 62.0762 43.5078 60.7461 41.9062 60.5918ZM42.4883 72.7656C42.2422 73.0098 41.9648 73.125 41.6191 73.125C41.6133 73.125 41.6094 73.125 41.6015 73.125C31.041 73.0137 21.1113 68.8379 13.6406 61.3672C6.1699 53.8965 1.99412 43.9668 1.88279 33.4062C1.87889 33.0527 1.99217 32.7715 2.24217 32.5195C2.49021 32.2676 2.77146 32.1504 3.12303 32.1504H3.12498L11.3203 32.1562C11.9629 32.1562 12.4941 32.6406 12.5566 33.2793C12.916 37.0332 13.914 40.6563 15.5215 44.0488C15.7383 44.5059 15.6758 44.9883 15.3535 45.377L13.4433 47.6641C12.5722 48.7109 12.4726 50.1328 13.1894 51.293C14.5 53.4102 16.0664 55.3848 17.8457 57.1621C19.623 58.9414 21.5976 60.5078 23.7148 61.8184C24.873 62.5352 26.2969 62.4355 27.3437 61.5625L29.6308 59.6543C30.0195 59.3301 30.5019 59.2695 30.959 59.4863C34.3515 61.0938 37.9746 62.0918 41.7285 62.4512C42.3672 62.5117 42.8515 63.0449 42.8515 63.6875L42.8574 71.8828C42.8554 72.2363 42.7402 72.5176 42.4883 72.7656ZM75 34.748C75 49.4746 65.6699 62.6484 51.7851 67.5293C51.6836 67.5645 51.5781 67.582 51.4765 67.582C51.0898 67.582 50.7305 67.3437 50.5957 66.959C50.4238 66.4707 50.6797 65.9395 51.166 65.7676C64.3066 61.1504 73.1328 48.6836 73.1328 34.748C73.1328 16.6211 58.3867 1.875 40.2597 1.875C26.3262 1.875 13.8574 10.7012 9.24021 23.8418C9.06834 24.3281 8.53514 24.584 8.04881 24.4121C7.56248 24.2402 7.30662 23.709 7.4785 23.2227C12.3594 9.33789 25.5332 0.0078125 40.2597 0.0078125C49.539 0.0078125 58.2636 3.62109 64.8261 10.1836C71.3867 16.7461 75 25.4688 75 34.748ZM28.2265 40.6914C27.1758 40.9277 26.3867 41.8652 26.3867 42.9863V44.5C26.3867 45.7988 27.4433 46.8535 28.7422 46.8535H51.7773C53.0781 46.8535 54.1328 45.7988 54.1328 44.5V42.9863C54.1328 41.8652 53.3457 40.9277 52.2949 40.6914V32.4844C52.2949 25.8496 46.8965 20.4512 40.2617 20.4512C33.6269 20.4512 28.2285 25.8496 28.2285 32.4844V40.6914H28.2265ZM52.2656 44.498C52.2656 44.7617 52.041 44.9863 51.7773 44.9863H28.7422C28.4765 44.9863 28.2539 44.7617 28.2539 44.498V42.9863C28.2539 42.7207 28.4765 42.4961 28.7422 42.4961H51.7773C52.041 42.4961 52.2656 42.7207 52.2656 42.9863V44.498ZM40.2597 22.3203C45.8652 22.3203 50.4258 26.8789 50.4258 32.4863V40.6328H30.0937V32.4863C30.0937 26.8789 34.6523 22.3203 40.2597 22.3203ZM40.2597 18.834C39.7441 18.834 39.3262 18.4141 39.3262 17.9004V14.5508C39.3262 14.0352 39.7441 13.6172 40.2597 13.6172C40.7754 13.6172 41.1933 14.0352 41.1933 14.5508V17.9004C41.1933 18.416 40.7754 18.834 40.2597 18.834ZM32.1601 20.3203L30.4863 17.4199C30.2265 16.9746 30.3808 16.4023 30.8281 16.1445C31.2734 15.8887 31.8457 16.041 32.1035 16.4863L33.7773 19.3867C34.0351 19.834 33.8808 20.4043 33.4355 20.6621C33.2871 20.7461 33.1269 20.7871 32.9707 20.7871C32.6445 20.7891 32.332 20.6211 32.1601 20.3203ZM28.4375 25.6602C28.2637 25.959 27.9492 26.127 27.6269 26.127C27.4687 26.127 27.3086 26.0859 27.1621 26.002L24.2617 24.3281C23.8164 24.0703 23.664 23.498 23.9199 23.0527C24.1777 22.6055 24.75 22.4531 25.1953 22.7109L28.0957 24.3848C28.5429 24.6426 28.6953 25.2129 28.4375 25.6602ZM22.3262 31.5508H25.6758C26.1894 31.5508 26.6094 31.9688 26.6094 32.4844C26.6094 33 26.1894 33.418 25.6758 33.418H22.3262C21.8105 33.418 21.3926 33 21.3926 32.4844C21.3926 31.9688 21.8105 31.5508 22.3262 31.5508ZM47.084 20.6621C46.6387 20.4043 46.4863 19.834 46.7422 19.3867L48.416 16.4863C48.6738 16.041 49.2461 15.8887 49.6914 16.1445C50.1387 16.4023 50.291 16.9746 50.0351 17.4199L48.3594 20.3203C48.1875 20.6191 47.873 20.7871 47.5508 20.7871C47.3926 20.7891 47.2324 20.748 47.084 20.6621ZM56.5976 23.0508C56.8555 23.498 56.7012 24.0684 56.2558 24.3262L53.3554 26C53.209 26.084 53.0469 26.125 52.8906 26.125C52.5683 26.125 52.2539 25.957 52.082 25.6582C51.8242 25.2109 51.9765 24.6406 52.4238 24.3828L55.3242 22.709C55.7695 22.4512 56.3418 22.6055 56.5976 23.0508ZM54.8437 31.5508H58.1933C58.709 31.5508 59.1269 31.9688 59.1269 32.4844C59.1269 33 58.709 33.418 58.1933 33.418H54.8437C54.3301 33.418 53.9101 33 53.9101 32.4844C53.9101 31.9688 54.3281 31.5508 54.8437 31.5508Z" fill="#2C565C"/>
</g>
</svg>
