<svg width="75" height="75" viewBox="0 0 75 75" fill="none" xmlns="http://www.w3.org/2000/svg">
<path d="M53.0606 47.7812V48.3418C50.334 48.8105 48.2774 50.8379 48.2774 53.2598C48.2774 56.2227 50.7461 57.2656 53.0606 57.9688V63.3809C51.1563 62.9961 49.9141 61.832 49.8809 61.8008C49.4063 61.3359 48.6426 61.3438 48.1758 61.8164C47.7071 62.2891 47.711 63.0527 48.1875 63.5215C48.2754 63.6074 50.1387 65.4102 53.0606 65.8281V66.373C53.0606 67.0391 53.6035 67.5801 54.2696 67.5801C54.9375 67.5801 55.4785 67.0391 55.4785 66.373V65.8145C58.2051 65.3438 60.2617 63.3164 60.2617 60.8945C60.2617 57.9219 57.7969 56.8711 55.4785 56.166V50.7734C57.3985 51.1602 58.6446 52.3398 58.6563 52.3496C59.1309 52.8184 59.8965 52.8125 60.3653 52.3398C60.834 51.8652 60.8281 51.1016 60.3535 50.6328C60.2656 50.5469 58.4004 48.7441 55.4785 48.3262V47.7812C55.4785 47.1152 54.9375 46.5742 54.2696 46.5742C53.6035 46.5742 53.0606 47.1152 53.0606 47.7812ZM50.6953 53.2617C50.6953 52.1543 51.6973 51.1816 53.0606 50.8105V55.4297C51.4629 54.8789 50.6953 54.332 50.6953 53.2617ZM57.8438 60.8945C57.8438 62.002 56.8438 62.9746 55.4785 63.3457V58.7051C57.0781 59.2598 57.8438 59.8105 57.8438 60.8945Z" fill="#2C565C"/>
<path d="M51.1875 23.7402H28.6465C27.9785 23.7402 27.4375 24.2793 27.4375 24.9453V31.1953C27.4375 31.8613 27.9785 32.4004 28.6465 32.4004H51.1875C51.8535 32.4004 52.3965 31.8613 52.3965 31.1953V24.9453C52.3965 24.2793 51.8535 23.7402 51.1875 23.7402ZM49.9785 29.9902H29.8555V26.1504H49.9785V29.9902Z" fill="#2C565C"/>
<path d="M8.66211 15.6387H36.2188C36.8867 15.6387 37.4277 15.0996 37.4277 14.4336C37.4277 13.7676 36.8867 13.2285 36.2188 13.2285H8.66211C7.99414 13.2285 7.45312 13.7676 7.45312 14.4336C7.45312 15.0996 7.99414 15.6387 8.66211 15.6387Z" fill="#2C565C"/>
<mask id="mask0_55_351" style="mask-type:luminance" maskUnits="userSpaceOnUse" x="0" y="0" width="75" height="75">
<path d="M0 0H75V75H0V0Z" fill="white"/>
</mask>
<g mask="url(#mask0_55_351)">
<path d="M74.9512 27.7012C74.9023 26.3398 74.3242 25.0801 73.3242 24.1523L71.5996 22.5527L72.3359 21.7617C72.9121 21.1445 73.2109 20.3418 73.1816 19.5C73.1504 18.6582 72.793 17.8789 72.1758 17.3066L65.2793 10.9062C64.791 10.4531 64.0254 10.4805 63.5703 10.9687C63.1152 11.457 63.1426 12.2187 63.6328 12.6738L70.5293 19.0723C70.6738 19.207 70.7578 19.3906 70.7656 19.5879C70.7715 19.7852 70.7012 19.9746 70.5664 20.1191L69.8301 20.9102L51.4395 3.8457C51.3184 3.73437 51.1777 3.64844 51.0254 3.59375L41.6719 0.23242C41.2168 0.0683571 40.707 0.193357 40.377 0.546873C40.0469 0.900388 39.9609 1.41601 40.1582 1.85742L41.4004 4.65039H1.20898C0.541015 4.65039 0 5.18945 0 5.85547V73.7227C0 74.3887 0.541015 74.9297 1.20898 74.9297H43.6738C44.3418 74.9297 44.8828 74.3887 44.8828 73.7227V68.4434C47.4355 70.5469 50.707 71.8105 54.2695 71.8105C62.4141 71.8105 69.041 65.2012 69.041 57.0781C69.041 50.0254 64.0469 44.1133 57.4004 42.6777V23.3066L66.3613 31.6191C67.5215 32.4648 68.7266 33.0273 70.0273 32.9824C71.3926 32.9336 72.6562 32.3574 73.5859 31.3594C74.5156 30.3613 75 29.0625 74.9512 27.7012ZM48.4824 5.24414L45.6602 8.27148L43.5176 3.45898L48.4824 5.24414ZM51.1875 34.7012H28.6465C27.9785 34.7012 27.4375 35.2402 27.4375 35.9062V57.8281C27.4375 58.4941 27.9785 59.0352 28.6465 59.0352H39.6309C39.7344 59.8105 39.8984 60.5664 40.1191 61.3008H26.4102C25.5508 61.3008 24.8516 60.6016 24.8516 59.7441V23.0293C24.8516 22.1719 25.5508 21.4746 26.4102 21.4746H53.4219C54.2832 21.4746 54.9824 22.1719 54.9824 23.0293V42.3613C54.7461 42.3496 54.5098 42.3437 54.2695 42.3437C53.6348 42.3437 53.0098 42.3848 52.3965 42.4629V35.9062C52.3965 35.2402 51.8535 34.7012 51.1875 34.7012ZM44.8828 40.1816V37.1133H49.9785V40.1816H44.8828ZM49.9785 42.5937C47.9395 43.4355 46.1836 44.418 44.9434 45.6621H44.8828V42.5937H49.9785ZM37.3691 51.1426V48.0742H42.4648C41.8008 48.9512 41.2305 49.9746 40.752 51.1426H37.3691ZM39.9277 53.5547C39.6836 54.543 39.5391 55.5684 39.5078 56.623H37.3691V53.5547H39.9277ZM37.3691 45.6621V42.5937H42.4648V45.6621H37.3691ZM37.3691 40.1816V37.1133H42.4648V40.1816H37.3691ZM29.8555 51.1426V48.0742H34.9512V51.1426H29.8555ZM34.9512 53.5547V56.623H29.8555V53.5547H34.9512ZM29.8555 45.6621V42.5937H34.9512V45.6621H29.8555ZM29.8555 40.1816V37.1133H34.9512V40.1816H29.8555ZM44.8828 19.0625V11.6914L52.8262 19.0625H44.8828ZM42.4648 72.5176H2.41797V7.0625H42.4648V19.0625H26.4102C24.2168 19.0625 22.4316 20.8418 22.4316 23.0293V24.3535H8.66211C7.99414 24.3535 7.45312 24.8926 7.45312 25.5586C7.45312 26.2246 7.99414 26.7656 8.66211 26.7656H22.4316V35.4785H8.66211C7.99414 35.4785 7.45312 36.0176 7.45312 36.6836C7.45312 37.3496 7.99414 37.8906 8.66211 37.8906H22.4316V46.6035H8.66211C7.99414 46.6035 7.45312 47.1445 7.45312 47.8105C7.45312 48.4766 7.99414 49.0156 8.66211 49.0156H22.4316V57.7305H8.66211C7.99414 57.7305 7.45312 58.2695 7.45312 58.9355C7.45312 59.6016 7.99414 60.1426 8.66211 60.1426H22.4531C22.6523 62.1426 24.3516 63.7109 26.4102 63.7109H41.084C41.4805 64.4902 41.9414 65.2305 42.4648 65.9219V72.5176ZM66.623 57.0781C66.623 63.8711 61.082 69.3984 54.2695 69.3984C47.459 69.3984 41.918 63.8711 41.918 57.0781C41.918 50.2832 47.459 44.7559 54.2695 44.7559C61.082 44.7559 66.623 50.2832 66.623 57.0781ZM47.0059 10.3691L50.6777 6.43359L65.4805 20.168L61.8105 24.1035L47.0059 10.3691ZM71.8145 29.7168C71.3242 30.2422 70.6582 30.5449 69.9395 30.5723C69.2246 30.5977 68.5352 30.3418 68.0078 29.8535L63.5801 25.7461L67.25 21.8105L71.6777 25.918C72.2051 26.4062 72.5098 27.0723 72.5352 27.7891C72.5605 28.5059 72.3047 29.1914 71.8145 29.7168Z" fill="#2C565C"/>
</g>
</svg>
