<svg width="72" height="70" viewBox="0 0 72 70" fill="none" xmlns="http://www.w3.org/2000/svg">
<mask id="mask0_20_277" style="mask-type:luminance" maskUnits="userSpaceOnUse" x="0" y="0" width="72" height="70">
<path d="M0 0H71.3867V70H0V0Z" fill="white"/>
</mask>
<g mask="url(#mask0_20_277)">
<path d="M54.127 24.8822C53.8943 24.6486 53.5909 24.5317 53.2838 24.5317C52.9805 24.5317 52.678 24.6486 52.4444 24.8822L49.914 27.4107L41.4796 18.965L43.5437 16.8981C44.9135 15.5264 45.5239 13.6366 45.2121 11.7186C44.904 9.8005 43.7302 8.20086 41.9921 7.33226L32.5223 2.59174L32.5873 2.52674L49.5089 5.91444C51.5918 6.33366 53.4929 7.35111 54.9937 8.85843L61.7229 15.5914L59.1878 18.1256C58.9645 18.3489 58.843 18.6522 58.843 18.9697C58.843 19.2825 58.9645 19.5906 59.1878 19.8148L61.7182 22.348C62.0027 22.6278 62.4078 22.754 62.7997 22.6749L65.7635 22.0823C66.1592 21.9985 66.5605 22.1238 66.844 22.4045L68.471 24.0372L58.3493 34.172L56.7177 32.5441C56.4341 32.2596 56.3126 31.8583 56.3917 31.4664L56.988 28.4932C57.0625 28.1013 56.9419 27.6952 56.6574 27.4154L54.127 24.8822ZM9.85128 64.1479C8.46172 65.5431 6.18849 65.5431 4.78951 64.1526C3.39617 62.748 3.39617 60.471 4.78951 59.0805L41.4749 22.3433L46.5404 27.4154L9.85128 64.1479ZM55.4647 48.4925C58.3955 48.1477 61.2707 49.1416 63.3584 51.2179C65.7955 53.6626 66.6999 57.2001 65.8238 60.4474L60.5623 55.1793C60.339 54.9551 60.0357 54.8298 59.7144 54.8298H54.6583C54.0007 54.8298 53.4647 55.3659 53.4647 56.0244V61.0871C53.4647 61.4036 53.5909 61.7117 53.8142 61.9359L59.0757 67.204C55.8321 68.0764 52.3003 67.1757 49.8584 64.7358C47.784 62.65 46.792 59.7663 47.1368 56.8355C47.36 54.9693 46.7401 53.1539 45.4448 51.8708L35.4673 41.881L40.5328 36.8089L50.5056 46.7939C51.7925 48.1006 53.6098 48.7167 55.4647 48.4925ZM14.0454 22.8991C13.7929 22.8991 13.5414 22.9133 13.2899 22.9406C10.3543 23.2863 7.47913 22.2924 5.3962 20.2161C2.95811 17.7705 2.05466 14.2339 2.93079 10.9866L8.19228 16.2547C8.41556 16.4779 8.72267 16.6042 9.04015 16.6042H14.0963C14.7529 16.6042 15.2889 16.0672 15.2889 15.4096V10.3469C15.2889 10.0294 15.1636 9.72137 14.9394 9.49715L9.67888 4.22907C12.9215 3.35199 16.4543 4.25262 18.8914 6.69825C20.9697 8.784 21.9626 11.6677 21.6225 14.5976C21.3936 16.4638 22.0088 18.2792 23.3098 19.5623L32.0937 28.3585L27.0281 33.4306L18.248 24.6391C17.1345 23.5105 15.6337 22.8991 14.0454 22.8991ZM55.0314 34.2332L57.5052 36.7062C57.7389 36.9389 58.0413 37.0557 58.3493 37.0557C58.6518 37.0557 58.9551 36.9389 59.1878 36.7062L71.0014 24.8822C71.4668 24.4149 71.4668 23.6594 71.0014 23.1931L68.5313 20.7201C67.6834 19.8656 66.4766 19.502 65.2972 19.7356L62.958 20.2067L61.7182 18.9697L64.2533 16.4365C64.4766 16.2123 64.6028 15.9042 64.6028 15.5914C64.6028 15.274 64.4766 14.9706 64.2533 14.7473L56.6856 7.16457C54.8448 5.32564 52.5235 4.08493 49.979 3.5715L32.4291 0.0575556C32.0381 -0.0215788 31.6321 0.104659 31.3532 0.384456L29.666 2.0736C29.3956 2.34397 29.2693 2.73211 29.3306 3.10988C29.3909 3.49236 29.633 3.81455 29.9731 3.98695L40.9247 9.46983C41.9638 9.99269 42.6723 10.9536 42.8588 12.1011C43.0453 13.2542 42.6817 14.3875 41.8564 15.209L38.9445 18.1256C38.7203 18.3489 38.595 18.6522 38.595 18.9697C38.595 19.2825 38.7203 19.5906 38.9445 19.8148L39.7876 20.6542L33.7809 26.6693L24.9914 17.8684C24.2179 17.1035 23.8496 16.0163 23.99 14.8773C24.4186 11.2146 23.1741 7.61677 20.5834 5.00911C17.0092 1.43016 11.5517 0.496563 7.00809 2.685C6.65858 2.85269 6.41176 3.17959 6.34676 3.56208C6.28081 3.94456 6.40705 4.33175 6.67743 4.60778L12.9036 10.8368V14.2151H9.52909L3.30762 7.98135C3.03348 7.71004 2.64628 7.58945 2.2638 7.64974C1.88226 7.71475 1.5563 7.96251 1.38767 8.31202C-0.797947 12.8622 0.134709 18.3263 3.70894 21.9052C6.31849 24.4997 9.90686 25.7451 13.5744 25.3155C14.702 25.1761 15.7882 25.5445 16.557 26.3236L25.3409 35.1197L3.09848 57.3913C0.781915 59.7098 0.777204 63.5035 3.10319 65.8418C4.2676 67.0033 5.79658 67.5818 7.32463 67.5818C8.85362 67.5818 10.3826 66.9986 11.5376 65.8418L33.7809 43.5701L43.7632 53.5646C44.5366 54.3305 44.904 55.4177 44.7646 56.5557C44.336 60.2185 45.5757 63.8116 48.1712 66.4249C50.4547 68.7113 53.5118 69.92 56.6065 69.92C58.3493 69.92 60.1101 69.5375 61.7512 68.749C62.096 68.5804 62.3428 68.2544 62.4078 67.871C62.4728 67.4885 62.3475 67.1013 62.0771 66.8262L55.851 60.5972V57.2189H59.2255L65.446 63.4527C65.7211 63.723 66.113 63.8446 66.4898 63.7843C66.8723 63.7183 67.1983 63.4715 67.366 63.1211C69.5516 58.5718 68.6199 53.1077 65.0456 49.5288C62.4408 46.9343 58.8477 45.6889 55.1802 46.1175C54.0525 46.2579 52.971 45.8886 52.1976 45.1095L42.2201 35.1197L48.2267 29.1046L49.0661 29.9496C49.5315 30.4159 50.2871 30.4159 50.7534 29.9496L53.2838 27.4154L54.5226 28.6524L54.0525 30.9944C53.8142 32.1701 54.1825 33.3835 55.0314 34.2332Z" fill="#9EC9D0"/>
</g>
</svg>
