<svg width="58" height="70" viewBox="0 0 58 70" fill="none" xmlns="http://www.w3.org/2000/svg">
<path d="M13.2757 70C9.24912 70 5.228 69.5689 1.32467 68.7185C0.550888 68.5499 0 67.8727 0 67.0915C0 66.3095 0.550888 65.6323 1.32467 65.4637C6.38686 64.3608 11.1881 62.4832 15.3759 59.9831C5.94198 55.053 0 45.4444 0 34.7302C0 34.3447 0.00996673 33.9464 0.0317123 33.4733C0.0380548 33.3411 0.0443972 33.2063 0.0516458 33.0714C0.0706731 32.7642 0.0933247 32.4634 0.121413 32.1626C0.617031 26.6611 2.71276 21.4466 6.18118 17.088C14.1899 6.54701 28.9561 0 44.7243 0C48.75 0 52.7684 0.423828 56.669 1.26055C57.4455 1.42734 58 2.10547 58 2.88932C58 3.67318 57.4455 4.3513 56.669 4.5181C51.7708 5.5681 47.1046 7.33633 43.0119 9.6806C52.2093 14.6763 58 24.2038 58 34.7302C58 35.1203 57.9891 35.5323 57.9665 36.0272L57.9511 36.3417C57.9266 36.7664 57.8967 37.162 57.8577 37.5475C57.8496 37.6323 57.8396 37.7143 57.8306 37.7964L57.817 37.9103C57.7835 38.202 57.7463 38.4909 57.7055 38.7789L57.691 38.8737C57.6747 38.9958 57.6566 39.1171 57.6376 39.2374C57.5823 39.5801 57.5207 39.9173 57.4536 40.2536C57.4147 40.4487 57.373 40.6419 57.3304 40.8352C57.2842 41.0402 57.2371 41.2444 57.1873 41.4477C57.1211 41.7184 57.0504 41.9891 56.9771 42.2589C56.9109 42.4986 56.842 42.7392 56.7696 42.9798C56.7215 43.1375 56.6753 43.2879 56.6264 43.4374C51.6032 59.0762 33.7763 70 13.2757 70ZM9.44755 66.5283C10.7197 66.6203 11.9972 66.6668 13.2757 66.6668C32.3203 66.6668 48.8234 56.6991 53.4072 42.4266C53.4516 42.2898 53.4932 42.1549 53.5349 42.0201C53.5965 41.8132 53.6581 41.599 53.717 41.3848C53.7832 41.1451 53.8448 40.9063 53.9037 40.6665C53.9481 40.4852 53.9898 40.3056 54.0305 40.1251C54.0677 39.9547 54.1048 39.7824 54.1393 39.6102C54.1981 39.3139 54.2534 39.015 54.3014 38.7142C54.3177 38.6167 54.3313 38.5146 54.3458 38.4125L54.3603 38.3095C54.3975 38.0516 54.431 37.7964 54.46 37.5402L54.4962 37.2185C54.5298 36.8813 54.557 36.5331 54.5778 36.1548L54.5914 35.875C54.6122 35.4329 54.6213 35.0674 54.6213 34.7293C54.6213 24.5091 48.4437 15.3563 38.8829 11.4096C38.3121 11.1736 37.917 10.6486 37.8545 10.0406C37.7911 9.43268 38.0711 8.83932 38.5821 8.49479C41.5585 6.49049 44.8883 4.79336 48.4365 3.46081C47.2024 3.37513 45.9638 3.33229 44.7234 3.33229C29.9908 3.33229 16.2539 9.37435 8.8731 19.1005C8.86586 19.1115 8.8577 19.1215 8.84864 19.1315C5.77889 22.9852 3.92508 27.5944 3.48564 32.4643C3.46027 32.735 3.44033 33.0003 3.42402 33.2664C3.41768 33.3822 3.41224 33.5016 3.40681 33.621C3.38687 34.0466 3.37781 34.3966 3.37781 34.7284C3.37781 45.1117 9.694 54.3193 19.4686 58.1866C20.0431 58.4135 20.4445 58.9313 20.5179 59.5374C20.5903 60.1426 20.3222 60.7396 19.8184 61.0923C16.7042 63.2734 13.1969 65.1073 9.44755 66.5283ZM28.9995 46.7569C22.2765 46.7569 16.8066 41.362 16.8066 34.7302C16.8066 28.0984 22.2765 22.7026 28.9995 22.7026C35.7235 22.7026 41.1925 28.0984 41.1925 34.7302C41.1925 41.362 35.7235 46.7569 28.9995 46.7569ZM28.9995 26.0358C24.1394 26.0358 20.1844 29.9359 20.1844 34.7302C20.1844 39.5236 24.1394 43.4237 28.9995 43.4237C33.8606 43.4237 37.8147 39.5236 37.8147 34.7302C37.8147 29.9359 33.8606 26.0358 28.9995 26.0358Z" fill="#9EC9D0"/>
</svg>
