<svg width="118" height="75" viewBox="0 0 118 75" fill="none" xmlns="http://www.w3.org/2000/svg">
<mask id="mask0_55_313" style="mask-type:luminance" maskUnits="userSpaceOnUse" x="0" y="0" width="59" height="75">
<path d="M0.390625 0H58.203V74.6824H0.390625V0Z" fill="white"/>
</mask>
<g mask="url(#mask0_55_313)">
<path d="M54.1077 42.0683C56.4881 37.3168 57.6783 32.9314 57.6783 28.7292C57.6783 12.9211 45.1355 0.0366211 29.8463 0.0366211H28.8392C13.4584 0.0366211 0.915649 12.9211 0.915649 28.7292C0.915649 32.9314 2.10583 37.3168 4.4862 42.0683C5.21862 43.4386 5.95104 44.9004 6.95812 46.3622C9.97936 51.2053 27.2828 72.4973 28.0152 73.4098C28.3814 73.776 28.8392 74.0507 29.3885 74.0507C29.9378 74.0507 30.3956 73.776 30.7618 73.4098C31.4942 72.5889 48.7977 51.2968 51.8189 46.3622C52.6429 44.9004 53.4668 43.4386 54.1077 42.0683ZM48.6145 44.4457C46.2342 48.3733 33.5084 64.3644 29.297 69.3906C25.0855 64.3644 12.3597 48.3733 9.97936 44.4457C9.06383 42.9808 8.33141 41.7021 7.69054 40.4235C5.58483 36.2212 4.57775 32.3821 4.57775 28.7292C4.57775 14.9292 15.4725 3.69262 28.7476 3.69262H29.7547C43.1214 3.69262 54.0162 14.9292 54.0162 28.7292C54.0162 32.3821 53.0091 36.2212 50.9034 40.4235C50.2625 41.7021 49.4385 43.0724 48.6145 44.4457Z" fill="#2C565C"/>
</g>
<path d="M29.2968 9.17334C18.6767 9.17334 10.0708 17.764 10.0708 28.3627C10.0708 38.9615 18.6767 47.5521 29.2968 47.5521C39.9169 47.5521 48.5229 38.9615 48.5229 28.3627C48.5229 17.764 39.9169 9.17334 29.2968 9.17334ZM29.2968 43.8961C20.6909 43.8961 13.7329 36.9503 13.7329 28.3627C13.7329 19.7721 20.6909 12.8293 29.2968 12.8293C37.9028 12.8293 44.8608 19.7721 44.8608 28.3627C44.8608 36.9503 37.9028 43.8961 29.2968 43.8961Z" fill="#2C565C"/>
<path d="M29.2969 16.4829C22.7051 16.4829 17.395 21.7838 17.395 28.3634C17.395 29.3674 18.219 30.1914 19.2261 30.1914C20.2331 30.1914 21.0571 29.3674 21.0571 28.3634C21.0571 23.7949 24.7192 20.1389 29.2969 20.1389C30.3039 20.1389 31.1279 19.318 31.1279 18.3109C31.1279 17.3069 30.3039 16.4829 29.2969 16.4829Z" fill="#2C565C"/>
<path d="M86.0594 66.7388C88.0736 66.7388 89.7215 65.0939 89.7215 63.0859V53.9459C89.7215 51.9379 88.0736 50.293 86.0594 50.293H80.5663C78.5521 50.293 76.9042 51.9379 76.9042 53.9459V63.0859C76.9042 65.0939 78.5521 66.7388 80.5663 66.7388H86.0594ZM80.5663 53.9459H86.0594V63.0859H80.5663V53.9459Z" fill="#2C565C"/>
<mask id="mask1_55_313" style="mask-type:luminance" maskUnits="userSpaceOnUse" x="33" y="2" width="85" height="73">
<path d="M33.9844 2.02637H117.187V74.9998H33.9844V2.02637Z" fill="white"/>
</mask>
<g mask="url(#mask1_55_313)">
<path d="M115.356 71.3074H98.8768V44.8091H102.722C104.095 44.8091 105.286 44.0797 105.926 42.8926C106.567 41.7024 106.476 40.2406 105.743 39.145L95.6725 24.5241C95.0316 23.5201 93.8415 22.9708 92.6513 22.9708H88.8061V13.7423H94.2992C96.3134 13.7423 97.9613 12.0974 97.9613 10.0893V6.43334C97.9613 4.42224 96.3134 2.77734 94.2992 2.77734H48.6145C50.0793 3.87597 51.3611 5.0631 52.6428 6.43334H94.2992V10.0893H55.5725C56.3964 11.2765 57.1289 12.4636 57.7697 13.7423H85.144V22.8792H60.791C60.9741 24.0694 61.1572 25.2565 61.2487 26.5352H92.6513L102.722 41.1561H58.5937C58.2275 41.977 57.8613 42.8926 57.4035 43.7135C57.2204 44.0797 57.0373 44.4459 56.8542 44.8091H95.2147V71.3074H72.3266V57.602C72.3266 53.5828 69.0307 50.2931 65.0024 50.2931H55.8471C54.8401 50.2931 53.9245 50.4762 53.1006 50.8393C51.9104 52.4842 50.354 54.4038 48.6145 56.598C48.6145 56.9642 48.5229 57.2358 48.5229 57.602V71.3074H37.262C35.9802 72.7692 34.9731 74.0509 34.1492 74.9634H115.356C116.363 74.9634 117.187 74.1425 117.187 73.1354C117.187 72.1314 116.363 71.3074 115.356 71.3074ZM68.6645 71.3074H52.185V57.602C52.185 55.5909 53.833 53.946 55.8471 53.946H65.0024C67.0165 53.946 68.6645 55.5909 68.6645 57.602V71.3074Z" fill="#2C565C"/>
</g>
<mask id="mask2_55_313" style="mask-type:luminance" maskUnits="userSpaceOnUse" x="0" y="70" width="25" height="5">
<path d="M0 70.7759H24.6093V74.9995H0V70.7759Z" fill="white"/>
</mask>
<g mask="url(#mask2_55_313)">
<path d="M1.83105 71.3071C0.823974 71.3071 0 72.1311 0 73.1351C0 74.1422 0.823974 74.9631 1.83105 74.9631H24.4445C23.7121 74.0506 22.6135 72.7689 21.3318 71.3071H1.83105Z" fill="#2C565C"/>
</g>
</svg>
