<svg width="68" height="80" viewBox="0 0 68 80" fill="none" xmlns="http://www.w3.org/2000/svg">
<mask id="mask0_92_359" style="mask-type:luminance" maskUnits="userSpaceOnUse" x="0" y="0" width="68" height="80">
<path d="M0.799999 0H67.2V80H0.799999V0Z" fill="white"/>
</mask>
<g mask="url(#mask0_92_359)">
<path d="M33.049 79.3677L34.0001 80.0344L34.9511 79.3698C36.2678 78.4469 67.1948 56.5531 67.1948 34.8552C67.1948 14.3333 53.5438 0 34.0001 0C14.4563 0 0.80526 14.3333 0.80526 34.8552C0.80526 56.5531 31.7323 78.4469 33.049 79.3677ZM34.0001 3.31979C51.8709 3.31979 63.8751 15.9937 63.8751 34.8552C63.8751 52.8135 39.198 72.0948 34.0001 75.9552C28.8001 72.0958 4.12505 52.826 4.12505 34.8552C4.12505 15.9937 16.1292 3.31979 34.0001 3.31979Z" fill="white"/>
</g>
<path d="M58.8958 33.1948C58.8958 19.4677 47.7281 8.29895 34 8.29895C20.2719 8.29895 9.10416 19.4677 9.10416 33.1948C9.10416 46.9229 20.2719 58.0917 34 58.0917C47.7281 58.0917 58.8958 46.9229 58.8958 33.1948ZM12.4229 33.1948C12.4229 21.2979 22.1031 11.6187 34 11.6187C45.8969 11.6187 55.5771 21.2979 55.5771 33.1948C55.5771 45.0917 45.8969 54.7719 34 54.7719C22.1031 54.7719 12.4229 45.0937 12.4229 33.1948Z" fill="white"/>
<path d="M47.2781 46.4729V29.5781L49.6469 31.2365L51.549 28.5167L42.299 22.0396V16.5979H38.9792V19.7167L34 16.2302L16.451 28.5146L18.3531 31.2344L20.7219 29.5781V46.4729H47.2781ZM35.6594 43.1531H32.3406V36.5146H35.6594V43.1531ZM43.9583 27.2552V43.1531H38.9792V33.1948H29.0208V43.1531H24.0417V27.2552L34 20.2834L43.9583 27.2552Z" fill="white"/>
</svg>
