<svg width="15" height="20" viewBox="0 0 15 20" fill="none" xmlns="http://www.w3.org/2000/svg">
<path d="M7.04083 20C6.88525 20 6.74193 19.9154 6.66649 19.7792C6.23473 18.9986 5.57038 17.9401 4.80109 16.7145C2.66211 13.3061 0 9.06416 0 7.05231C0 3.16357 3.15835 0 7.04083 0C10.9233 0 14.0819 3.16357 14.0819 7.05231C14.0819 9.16858 11.571 13.1252 9.35549 16.6161C8.59377 17.8161 7.8746 18.9498 7.41516 19.7792C7.33972 19.9154 7.19641 20 7.04083 20ZM7.04083 0.857262C3.63031 0.857262 0.855696 3.63632 0.855696 7.05231C0.855696 8.81722 3.55487 13.1179 5.52574 16.2582C6.10734 17.1849 6.62942 18.0169 7.04135 18.7131C7.48434 17.9667 8.04636 17.081 8.63318 16.1562C10.5714 13.102 13.226 8.91929 13.226 7.05231C13.226 3.63632 10.4513 0.857262 7.04083 0.857262Z" fill="white"/>
<path d="M7.04079 10.1908C5.17564 10.1908 3.6582 8.67103 3.6582 6.80275C3.6582 4.93448 5.17564 3.41469 7.04079 3.41469C8.90672 3.41469 10.4247 4.93448 10.4247 6.80275C10.4247 8.67103 8.90672 10.1908 7.04079 10.1908ZM7.04079 4.27195C5.6476 4.27195 4.5139 5.40722 4.5139 6.80275C4.5139 8.19828 5.6476 9.33356 7.04079 9.33356C8.43475 9.33356 9.56872 8.19828 9.56872 6.80275C9.56872 5.40722 8.43475 4.27195 7.04079 4.27195Z" fill="white"/>
</svg>
