<svg width="788" height="737" viewBox="0 0 788 737" fill="none" xmlns="http://www.w3.org/2000/svg">
<path d="M788 0V737H0V0H788ZM377 62C207.449 62 70 199.449 70 369C70 538.551 207.449 676 377 676C546.551 676 684 538.551 684 369C684 199.449 546.551 62 377 62Z" fill="#2C565C"/>
<path d="M253.304 76.7728C316.171 51.4926 385.508 47.1312 451.047 64.3337C516.586 81.5362 574.842 119.388 617.189 172.284C659.536 225.18 683.722 290.308 686.165 358.023C688.608 425.738 669.179 492.439 630.754 548.25C592.329 604.06 536.952 646.013 472.823 667.893C408.694 689.774 339.223 690.42 274.698 669.736C210.174 649.052 154.026 608.138 114.569 553.053L147.411 529.528C197.311 599.069 278.852 644.372 370.975 644.372C522.843 644.372 645.956 521.259 645.956 369.391C645.956 217.524 522.843 94.411 370.975 94.411C271.743 94.4112 184.788 146.975 136.433 225.778L102 204.694C137.384 146.908 190.438 102.053 253.304 76.7728Z" fill="#658F96"/>
</svg>
