<svg width="86" height="75" viewBox="0 0 86 75" fill="none" xmlns="http://www.w3.org/2000/svg">
<mask id="mask0_55_310" style="mask-type:luminance" maskUnits="userSpaceOnUse" x="0" y="0" width="86" height="75">
<path d="M0 0H85.2273V75H0V0Z" fill="white"/>
</mask>
<g mask="url(#mask0_55_310)">
<path fill-rule="evenodd" clip-rule="evenodd" d="M32.1888 50.8501C32.9878 50.8501 33.5161 51.3783 33.5161 52.1773C33.5161 52.9763 32.9878 53.5045 32.1888 53.5045H9.21741C8.4184 53.5045 7.88795 52.9763 7.88795 52.1773C7.88795 51.3783 8.4184 50.8501 9.21741 50.8501H32.1888ZM1.52032 39.6995H24.4917C25.2907 39.6995 25.8212 40.2277 25.8212 41.0267C25.8212 41.7813 25.3484 42.294 24.6227 42.3495L24.4917 42.354H1.52032C0.721316 42.354 0.193085 41.8257 0.193085 41.0267C0.193085 40.2721 0.663611 39.7594 1.38937 39.7039L1.52032 39.6995ZM9.21741 28.5489H32.1888C32.9878 28.5489 33.5161 29.0771 33.5161 29.8762C33.5161 30.6308 33.0433 31.1435 32.3198 31.199L32.1888 31.2034H9.21741C8.42284 31.2034 7.88795 30.6685 7.88795 29.8762C7.88795 29.1215 8.3607 28.6088 9.08646 28.5534L9.21741 28.5489ZM81.432 26.5004C83.7491 31.0258 85.0342 36.1483 85.0342 41.555C85.0342 60.0142 70.0284 75.02 51.5714 75.0089C42.6758 75.0089 34.3084 71.5598 27.9341 65.1855C27.4059 64.6573 27.4059 63.8583 27.9341 63.3279C28.4646 62.7996 29.2614 62.7996 29.7918 63.3279C35.6312 69.1739 43.3327 72.3588 51.5647 72.3588C68.5613 72.3588 82.3664 58.5516 82.3664 41.555C82.3664 36.9185 81.3277 32.5062 79.4633 28.5511L81.432 26.5004ZM77.3615 30.7417C78.7953 34.102 79.5876 37.7996 79.5876 41.6837C79.5876 57.089 67.1098 69.569 51.7045 69.569C46.0005 69.569 40.554 67.84 35.9064 64.6573C35.2428 64.2623 35.1074 63.4632 35.5069 62.7996C35.9064 62.2714 36.7054 62.136 37.5 62.5244C41.6127 65.4452 46.5288 66.9078 51.7045 66.9078C65.6472 66.9078 76.9331 55.6219 76.9331 41.6792C76.9331 38.5698 76.3716 35.5913 75.344 32.8414L77.3615 30.7417ZM77.013 19.1451C78.1982 18.983 79.3524 19.5978 79.8739 20.6698C80.3999 21.7441 80.1713 23.0336 79.3168 23.8636C69.549 33.6515 62.4911 41.5905 52.6101 51.4915C51.598 52.5169 49.9689 52.5923 48.8681 51.6646L36.8963 41.5328C36.3326 41.0622 35.9797 40.3853 35.9175 39.6529C35.8532 38.9182 36.084 38.1925 36.5589 37.6309C37.0339 37.065 37.7131 36.7165 38.4433 36.6566C39.1779 36.5945 39.9037 36.8275 40.4652 37.3025L50.4794 45.763C59.2773 36.8453 66.1821 29.2192 75.4017 19.9796C75.8301 19.529 76.3983 19.2338 77.013 19.1451ZM51.7045 13.8006C58.7402 13.8006 65.1656 16.404 70.0706 20.6987L68.2351 22.6141C63.8095 18.7744 58.03 16.4506 51.7045 16.4506C46.3934 16.4506 41.2131 18.0487 36.9651 21.2336C36.3015 21.6331 35.5069 21.4977 35.1074 20.9695C34.7079 20.4412 34.8433 19.5113 35.3715 19.1118C40.1545 15.6583 45.8651 13.8006 51.7045 13.8006ZM57.6815 0C58.4783 0 59.0088 0.528232 59.0088 1.32724C59.0088 2.08185 58.536 2.59677 57.8103 2.65004L57.6815 2.65447H52.8986V8.23198C60.7022 8.48944 67.7468 11.428 73.271 16.1643L73.615 16.4617L73.8747 16.7236L72.0237 18.659C66.5261 13.825 59.355 10.882 51.5647 10.882C43.0686 10.882 35.103 14.3355 29.1282 20.5744C28.5977 21.1048 27.801 21.1048 27.2705 20.5744C26.7423 20.0462 26.7423 19.2472 27.2705 18.7189C33.2697 12.3335 41.1843 8.76243 49.7647 8.25639L50.2419 8.23198V2.65447H45.5966C44.7976 2.65447 44.2671 2.12624 44.2671 1.32724C44.2671 0.57262 44.7399 0.0599259 45.4656 0.00443892L45.5966 0H57.6815Z" fill="#2C565C"/>
</g>
</svg>
