<svg width="67" height="75" viewBox="0 0 67 75" fill="none" xmlns="http://www.w3.org/2000/svg">
<path d="M66.0986 46.8203C60.8681 43.7168 56.7275 42.334 52.6689 42.334C49.8408 42.334 46.9717 43.0059 43.7256 44.4629C40.915 42.5 37.8232 41.0938 34.5654 40.2812C39.8076 37.7637 43.4385 32.4043 43.4463 26.2109H43.6318C45.3447 26.2109 46.7373 24.8184 46.7373 23.1055V22.418C46.7373 21.1348 45.956 20.0312 44.8428 19.5586V19.4219C44.8428 15.4238 43.415 11.5332 40.8213 8.46484C38.4756 5.68945 35.3076 3.73437 31.8213 2.88672V2.83398C31.8213 1.27148 30.5517 0 28.9892 0H26.667C25.1045 0 23.833 1.27148 23.833 2.83398V2.88672C20.3467 3.73437 17.1787 5.68945 14.833 8.46484C12.2392 11.5332 10.8115 15.4238 10.8115 19.4219V19.5586C9.70018 20.0312 8.91698 21.1348 8.91698 22.418V23.1055C8.91698 24.8184 10.3115 26.2109 12.0224 26.2109H12.2099C12.2178 32.4082 15.8545 37.7734 21.1045 40.2871C9.70409 43.1484 0.920886 53.0957 0.0087766 65.2617C-0.0556764 66.1074 0.237292 66.9434 0.807605 67.5605C1.37987 68.1777 2.19432 68.5312 3.04003 68.5312H43.3115C43.4639 68.6504 43.6201 68.7695 43.7803 68.8828L51.9814 74.7793C52.1865 74.9258 52.4287 75 52.6689 75C52.9092 75 53.1494 74.9258 53.3545 74.7793L61.5576 68.8828C64.9053 66.4785 66.6748 63.0273 66.6748 58.9043V47.832C66.6748 47.416 66.456 47.0312 66.0986 46.8203ZM40.9932 66.1777H29.0049V56.0098L37.8135 43.8496C39.0068 44.3633 40.167 44.9688 41.2822 45.666C40.6201 46.0215 39.9385 46.4043 39.2392 46.8203C38.8818 47.0312 38.6631 47.416 38.6631 47.832V58.9043C38.6631 61.668 39.4599 64.1309 40.9932 66.1777ZM27.8271 53.623L20.1357 43.0078C22.5713 42.2305 25.1572 41.8105 27.8271 41.8105C30.4717 41.8105 33.0596 42.2129 35.5244 42.998L27.8271 53.623ZM26.6514 56.0098V66.1777H10.958C12.9092 59.6348 13.6533 53.0176 13.1728 46.4746C14.6299 45.4473 16.1963 44.5684 17.8486 43.8594L26.6514 56.0098ZM34.7041 6.4707L34.0361 16.4863C33.9932 17.1348 34.4834 17.6953 35.1318 17.7402C35.1572 17.7402 35.1846 17.7422 35.2099 17.7422C35.8252 17.7422 36.3408 17.2656 36.3838 16.6445L36.9639 7.95508C40.3349 10.6426 42.4541 14.7617 42.4873 19.3125H31.8213V5.31641C32.8349 5.60156 33.7998 5.99023 34.7041 6.4707ZM26.667 2.35352H28.9892C29.249 2.35352 29.4697 2.57227 29.4697 2.83398V19.3125H26.1865V2.83398C26.1865 2.57227 26.4053 2.35352 26.667 2.35352ZM18.6924 7.95508L19.2724 16.6445C19.3135 17.2656 19.831 17.7422 20.4443 17.7422C20.4717 17.7422 20.4971 17.7402 20.5244 17.7402C21.1728 17.6953 21.6631 17.1348 21.6201 16.4863L20.9502 6.4707C21.8564 5.99023 22.8213 5.60156 23.833 5.31641V19.3125H13.167C13.2002 14.7617 15.3213 10.6426 18.6924 7.95508ZM11.2705 23.1055V22.418C11.2705 22.0098 11.6142 21.666 12.0224 21.666H43.6318C44.04 21.666 44.3838 22.0098 44.3838 22.418V23.1055C44.3838 23.5137 44.04 23.8574 43.6318 23.8574H12.0224C11.6142 23.8574 11.2705 23.5137 11.2705 23.1055ZM14.5615 26.2109H41.0928C41.083 33.5156 35.1357 39.457 27.8271 39.457C20.5185 39.457 14.5732 33.5156 14.5615 26.2109ZM2.53417 65.9609C2.40331 65.8203 2.33885 65.6348 2.35448 65.4395C2.8662 58.6055 6.09081 52.5352 10.917 48.2598C11.1631 54.2148 10.3525 60.2285 8.49901 66.1777H3.04003C2.84276 66.1777 2.66307 66.0996 2.53417 65.9609ZM64.3213 58.9043C64.3213 62.2383 62.8916 65.0273 60.1846 66.9727L52.6689 72.375L45.1533 66.9727C42.4463 65.0273 41.0166 62.2383 41.0166 58.9043V48.5059C49.8584 43.3945 55.4775 43.3945 64.3213 48.5059V58.9043ZM52.6689 46.4434C49.8252 46.4434 46.9639 47.291 43.3896 49.1875C43.0049 49.3926 42.7646 49.791 42.7646 50.2266V58.9043C42.7646 61.6895 43.9131 63.9258 46.1728 65.5527L51.9814 69.7266C52.1865 69.873 52.4287 69.9473 52.6689 69.9473C52.9092 69.9473 53.1494 69.873 53.3545 69.7266L59.1631 65.5527C61.4248 63.9258 62.5713 61.6895 62.5713 58.9043V50.2266C62.5713 49.791 62.331 49.3926 61.9482 49.1875C58.374 47.291 55.5127 46.4434 52.6689 46.4434ZM60.2197 58.9043C60.2197 60.918 59.4248 62.4668 57.79 63.6426L52.6689 67.3223L47.5478 63.6426C45.9131 62.4668 45.1182 60.918 45.1182 58.9043V50.9414C50.749 48.0879 54.5869 48.0879 60.2197 50.9414V58.9043ZM51.4717 58.1328L56.001 53.5605C56.458 53.0996 57.2021 53.0957 57.665 53.5527C58.126 54.0098 58.1299 54.7559 57.6728 55.2168L52.3213 60.6172C52.0908 60.8496 51.7881 60.9668 51.4853 60.9668C51.1885 60.9668 50.8935 60.8555 50.665 60.6328L47.6807 57.7227C47.2139 57.2695 47.2041 56.5234 47.6592 56.0586C48.1123 55.5937 48.8564 55.584 49.3213 56.0371L51.4717 58.1328Z" fill="#9EC9D0"/>
</svg>
