<svg width="64" height="80" viewBox="0 0 64 80" fill="none" xmlns="http://www.w3.org/2000/svg">
<mask id="mask0_93_360" style="mask-type:luminance" maskUnits="userSpaceOnUse" x="0" y="0" width="64" height="80">
<path d="M0.072937 0H63.8729V80H0.072937V0Z" fill="white"/>
</mask>
<g mask="url(#mask0_93_360)">
<path d="M63.0989 16.2344L32.7365 0.25415C32.2802 0.0145671 31.7344 0.0145671 31.2781 0.25415L0.915621 16.2344C0.401037 16.5052 0.0791626 17.0385 0.0791626 17.6198V36.7521C0.0791626 55.3417 15.6448 69.3177 31.1385 79.6469C31.6646 79.9979 32.349 79.9979 32.875 79.6469C48.3375 69.3385 63.9354 55.3594 63.9354 36.7521V17.6198C63.9354 17.0385 63.6125 16.5052 63.0989 16.2344ZM60.8042 36.7521C60.8042 54.7239 44.6292 67.9448 32.0073 76.4604C19.3854 67.9448 3.21041 54.7239 3.21041 36.7521V18.5646L32.0073 3.40832L60.8042 18.5646V36.7521Z" fill="white"/>
</g>
<path d="M31.2781 9.31665L8.09061 21.5208C7.57603 21.7917 7.25415 22.325 7.25415 22.9062V37.5177C7.25415 51.8844 19.2354 62.649 31.1385 70.5844C31.6646 70.9344 32.3489 70.9344 32.875 70.5844C44.7823 62.6458 56.7604 51.8823 56.7604 37.5177V22.9062C56.7604 22.325 56.4385 21.7917 55.9239 21.5208L32.7364 9.31665C32.2802 9.07707 31.7344 9.07707 31.2781 9.31665ZM53.6291 23.851V37.5177C53.6291 47.8698 46.7531 57.3802 32.0073 67.3948C17.2614 57.3802 10.3844 47.8698 10.3844 37.5177V23.851L32.0073 12.4719L53.6291 23.851Z" fill="white"/>
<path d="M16.3531 39.9917C16.3531 48.624 23.375 55.6459 32.0073 55.6459C40.6386 55.6459 47.6615 48.624 47.6615 39.9917C47.6615 31.3604 40.6386 24.3386 32.0073 24.3386C23.375 24.3386 16.3531 31.3604 16.3531 39.9917ZM44.5302 39.9917C44.5302 46.8979 38.9125 52.5156 32.0073 52.5156C25.1021 52.5156 19.4834 46.8979 19.4834 39.9917C19.4834 33.0865 25.1021 27.4688 32.0073 27.4688C38.9125 27.4688 44.5302 33.0865 44.5302 39.9917Z" fill="white"/>
<path d="M27.2437 39.4719C26.6323 38.8615 25.6416 38.8615 25.0302 39.4719C24.4187 40.0833 24.4187 41.075 25.0302 41.6865L28.5521 45.2083C29.1635 45.8198 30.1541 45.8198 30.7656 45.2083L38.9844 36.9896C39.5958 36.3792 39.5958 35.3875 38.9844 34.776C38.3729 34.1646 37.3823 34.1646 36.7708 34.776L29.6594 41.8875L27.2437 39.4719Z" fill="white"/>
</svg>
