<svg width="70" height="75" viewBox="0 0 70 75" fill="none" xmlns="http://www.w3.org/2000/svg">
<mask id="mask0_55_312" style="mask-type:luminance" maskUnits="userSpaceOnUse" x="0" y="15" width="70" height="60">
<path d="M0 15.75H69.8125V75H0V15.75Z" fill="white"/>
</mask>
<g mask="url(#mask0_55_312)">
<path d="M69.1621 55.7655L59.3145 47.4511C59.6328 46.8554 59.836 46.1972 59.8926 45.5038C60.0059 44.1659 59.5918 42.8651 58.7285 41.8456C58.0977 41.0956 57.2774 40.5585 56.3555 40.2811C57.7227 38.4511 57.7071 35.8515 56.1758 34.0331C55.5098 33.2421 54.6348 32.6893 53.6524 32.4276C54.7481 30.6347 54.6367 28.2655 53.2071 26.5682C52.416 25.6327 51.3282 25.0272 50.1172 24.8495C50.6719 23.2323 50.3907 21.3729 49.2129 19.9745C48.3535 18.953 47.1387 18.328 45.8008 18.2147C44.4532 18.0975 43.1602 18.5136 42.1367 19.3749L41.9512 19.5331L36.3067 16.8983C33.3535 15.3651 30.7657 16.5722 29.5157 18.4432C29.0996 19.0643 28.8438 19.7362 28.711 20.414L27.4805 19.3749C25.3633 17.5917 22.1895 17.8632 20.4063 19.9745C19.2266 21.3729 18.9473 23.2323 19.502 24.8495C18.293 25.0272 17.2051 25.6307 16.4121 26.5702C15.5508 27.5917 15.1387 28.8905 15.252 30.2284C15.3184 31.0214 15.5645 31.7694 15.9668 32.4276C15.0137 32.6835 14.127 33.2225 13.4434 34.0311C11.9102 35.8515 11.8965 38.4511 13.2657 40.2792C12.3692 40.5526 11.5371 41.0741 10.8907 41.8417C9.52737 43.4569 9.36917 45.6874 10.3106 47.4491L0.459013 55.7655C-0.0527063 56.1952 -0.117159 56.9589 0.312528 57.4686C0.552763 57.7518 0.892606 57.8983 1.24026 57.8983C1.51565 57.8983 1.79104 57.8046 2.01761 57.6151L11.9043 49.2714L15.8711 52.6151C16.7813 53.3827 17.9121 53.7948 19.0938 53.7948C19.2383 53.7948 19.3828 53.787 19.5293 53.7753C20.8653 53.662 22.0782 53.037 22.9356 52.0175C23.7989 50.9979 24.2129 49.6991 24.0996 48.3612C24.041 47.6522 23.8301 46.9843 23.502 46.3808C24.502 46.1386 25.4395 45.5995 26.1504 44.7577C27.1309 43.5936 27.4668 42.1151 27.2422 40.7206C27.2422 40.7206 27.2442 40.7206 27.2461 40.7206C28.6563 40.7206 30.045 40.1366 30.9981 39.0116C31.8867 38.1171 32.3457 36.9003 32.2891 35.5878C32.2871 35.5448 32.2735 35.5018 32.2696 35.4608C32.4688 35.4843 32.6641 35.5175 32.8672 35.5175C33.0098 35.5175 33.1563 35.5116 33.3028 35.4979C34.6407 35.3847 35.8516 34.7597 36.6407 33.8143C37.5352 32.9257 37.9961 31.7128 37.9414 30.3983C37.8926 29.203 37.4082 28.078 36.6231 27.1952L43.6953 21.2245C44.2246 20.7792 44.8946 20.5604 45.5938 20.6268C46.2891 20.6835 46.916 21.0077 47.3614 21.535C48.2832 22.6288 48.1426 24.2753 47.0489 25.1991L46.1348 25.9745C46.1328 25.9745 46.1328 25.9745 46.1328 25.9745C45.6231 26.4061 45.5606 27.1698 45.9922 27.6796C46.4219 28.1893 47.1856 28.2518 47.6953 27.8222L47.7012 27.8143C48.2266 27.3768 48.9004 27.1679 49.586 27.2206C50.2832 27.2792 50.9121 27.6015 51.3574 28.1288C52.2813 29.2265 52.1407 30.869 51.0449 31.7948L49.1035 33.4354C49.1035 33.4354 49.1035 33.4374 49.1016 33.4374C48.5918 33.869 48.5274 34.6327 48.961 35.1405C49.3907 35.6522 50.1543 35.7147 50.6641 35.2831H50.666C51.1934 34.8358 51.8848 34.6288 52.5586 34.6835C53.2539 34.7421 53.8789 35.0643 54.3242 35.5917C55.2461 36.6874 55.1074 38.3319 54.0137 39.2557L51.6582 41.2421V41.244C51.1465 41.6737 51.0821 42.4374 51.5117 42.9491C51.9434 43.4589 52.7051 43.5253 53.2168 43.0936L53.2207 43.0917C53.7481 42.6464 54.4141 42.4393 55.1133 42.494C55.8067 42.5526 56.4336 42.8749 56.8789 43.4042C57.3242 43.9335 57.5371 44.6054 57.4805 45.2987C57.4199 45.9921 57.0996 46.6229 56.5723 47.0663L45.5762 56.3476C41.0899 60.1347 37.3887 59.7343 31.8301 58.6288C31.4688 58.5526 31.0977 58.6542 30.8145 58.8925L14.2598 72.8651C13.7481 73.2948 13.6856 74.0585 14.1172 74.5702C14.3555 74.8534 14.6953 74.9999 15.041 74.9999C15.3164 74.9999 15.5918 74.9061 15.8203 74.7147L31.9317 61.1132C34.2266 61.5565 36.3282 61.8651 38.3594 61.7909L53.8086 74.7186C54.0371 74.9081 54.3125 74.9999 54.586 74.9999C54.9317 74.9999 55.2754 74.8515 55.5137 74.5663C55.9414 74.0546 55.875 73.2909 55.3633 72.8632L41.5528 61.3085C43.3867 60.789 45.2149 59.8202 47.1367 58.1991L57.7188 49.2694L67.6016 57.6132C67.8282 57.8046 68.1055 57.8983 68.3809 57.8983C68.7266 57.8983 69.0664 57.7538 69.3067 57.4706C69.7364 56.9608 69.6719 56.1972 69.1621 55.7655ZM31.6543 22.8964C30.7383 22.1229 30.9063 20.7167 31.5293 19.787C31.836 19.3261 33.0098 17.9159 35.2403 19.0682L39.916 21.2499L34.8106 25.5624L31.666 22.9081L31.6563 22.9003C31.6563 22.8983 31.6563 22.8964 31.6543 22.8964ZM21.0899 50.455C20.6446 50.9823 20.0176 51.3046 19.3262 51.3632C18.625 51.4257 17.9571 51.2089 17.4317 50.7636L13.0489 47.0702C11.9532 46.1405 11.8145 44.496 12.7403 43.4022C13.6563 42.3143 15.2813 42.1698 16.3789 43.078L20.7852 46.7929C21.3125 47.2362 21.6328 47.8651 21.6914 48.5604C21.75 49.2558 21.5352 49.9276 21.0899 50.455ZM24.3028 43.1952C23.3789 44.289 21.7364 44.4296 20.6407 43.5077L17.9688 41.2538C17.9649 41.2518 17.9629 41.2479 17.959 41.244V41.2421L15.6055 39.2577C14.5117 38.33 14.3711 36.6874 15.293 35.5917C15.7383 35.0643 16.3672 34.7421 17.0625 34.6835C17.7578 34.6249 18.4297 34.8378 18.9571 35.2831L18.959 35.285C18.961 35.287 18.9668 35.287 18.9688 35.289L23.9903 39.5331C25.086 40.4569 25.2246 42.1015 24.3028 43.1952ZM29.2188 37.3749C28.293 38.4686 26.6504 38.6093 25.5528 37.6835L20.5039 33.4198C20.502 33.4179 20.5 33.4179 20.4981 33.4179L18.5723 31.7909C18.045 31.3475 17.7227 30.7206 17.6641 30.0233C17.6035 29.33 17.8184 28.6542 18.2617 28.1288C18.7071 27.6015 19.336 27.2792 20.0293 27.2206C20.711 27.1581 21.3907 27.3729 21.916 27.8124L21.9278 27.8222L28.9063 33.7108C29.4825 34.1972 29.8438 34.9374 29.877 35.6893C29.9024 36.3202 29.6934 36.8944 29.2188 37.3749ZM34.8653 32.1776C34.4219 32.705 33.7949 33.0272 33.1016 33.0858C32.4024 33.1503 31.7344 32.9315 31.209 32.4901C31.1504 32.4393 31.0977 32.4393 31.0469 32.4667C30.8653 32.2538 30.6797 32.0429 30.4668 31.8612L23.4864 25.9725C23.4825 25.9667 23.4766 25.9647 23.4727 25.9589L22.5684 25.1991C21.4746 24.2733 21.334 22.6288 22.2559 21.535C23.1797 20.4413 24.8262 20.2987 25.92 21.2206L27.5742 22.619C27.5762 22.619 27.5762 22.619 27.5762 22.621L30.2032 24.8397L31.0176 25.5253L34.5606 28.5175C35.1367 29.0018 35.4961 29.7421 35.5293 30.4979C35.5547 31.1249 35.3438 31.6932 34.8653 32.1776Z" fill="#2C565C"/>
</g>
<mask id="mask1_55_312" style="mask-type:luminance" maskUnits="userSpaceOnUse" x="38" y="0" width="3" height="10">
<path d="M38 0H41V9.25H38V0Z" fill="white"/>
</mask>
<g mask="url(#mask1_55_312)">
<path d="M39.6543 8.7832C40.3223 8.7832 40.8633 8.24219 40.8633 7.57227V1.20898C40.8633 0.541015 40.3223 0 39.6543 0C38.9844 0 38.4453 0.541015 38.4453 1.20898V7.57227C38.4453 8.24219 38.9844 8.7832 39.6543 8.7832Z" fill="#2C565C"/>
</g>
<path d="M55.6816 12.2598C56.0527 12.2598 56.4199 12.0879 56.6582 11.7656L60.4219 6.63674C60.8164 6.09963 60.6992 5.34182 60.1621 4.94729C59.6191 4.54885 58.8652 4.66995 58.4707 5.20706L54.707 10.336C54.3125 10.8731 54.4297 11.6309 54.9668 12.0274C55.1836 12.1836 55.4336 12.2598 55.6816 12.2598Z" fill="#2C565C"/>
<path d="M22.6504 11.7654C22.8867 12.0896 23.2539 12.2596 23.6269 12.2596C23.875 12.2596 24.125 12.1834 24.3418 12.0252C24.8808 11.6307 24.9961 10.8728 24.6016 10.3357L20.8359 5.20683C20.4414 4.66972 19.6855 4.55254 19.1445 4.94707C18.6074 5.3416 18.4902 6.09941 18.8867 6.63652L22.6504 11.7654Z" fill="#2C565C"/>
</svg>
