<svg width="61" height="71" viewBox="0 0 61 71" fill="none" xmlns="http://www.w3.org/2000/svg">
<mask id="mask0_20_191" style="mask-type:luminance" maskUnits="userSpaceOnUse" x="0" y="0" width="36" height="50">
<path d="M0 0.81604H35.1607V49.8979H0V0.81604Z" fill="white"/>
</mask>
<g mask="url(#mask0_20_191)">
<path d="M17.5612 3.76409C20.9063 7.68351 32.7495 22.1899 32.7495 31.1489C32.7495 38.6007 30.1119 47.4831 17.5612 47.4831C5.01044 47.4831 2.37284 38.6007 2.37284 31.1489C2.37284 22.1899 14.216 7.68351 17.5612 3.76409ZM17.5612 49.8157C28.8611 49.8157 35.0868 43.1848 35.0868 31.1489C35.0868 19.8791 19.1132 1.96004 18.4285 1.20318C17.9857 0.711082 17.1366 0.711082 16.6938 1.20318C16.01 1.96004 0.0356064 19.8791 0.0356064 31.1489C0.0356064 43.1848 6.26122 49.8157 17.5612 49.8157Z" fill="#9EC9D0"/>
</g>
<mask id="mask1_20_191" style="mask-type:luminance" maskUnits="userSpaceOnUse" x="39" y="21" width="22" height="32">
<path d="M39.6014 21.6173H60.8264V52.235H39.6014V21.6173Z" fill="white"/>
</mask>
<g mask="url(#mask1_20_191)">
<path d="M50.2751 24.7461C52.5302 27.3618 58.4536 34.7405 58.4536 39.9308C58.4536 46.4887 55.7018 49.8156 50.2751 49.8156C44.8483 49.8156 42.0966 46.4887 42.0966 39.9308C42.0966 34.7405 48.0209 27.3618 50.2751 24.7461ZM50.2751 52.1492C56.9572 52.1492 60.7908 47.6966 60.7908 39.9308C60.7908 32.6397 51.5259 22.6088 51.1287 22.1897C50.6859 21.7113 49.8643 21.7113 49.4215 22.1897C49.0243 22.6088 39.7603 32.6397 39.7603 39.9308C39.7603 47.6966 43.5939 52.1492 50.2751 52.1492Z" fill="#9EC9D0"/>
</g>
<mask id="mask2_20_191" style="mask-type:luminance" maskUnits="userSpaceOnUse" x="25" y="47" width="18" height="24">
<path d="M25.578 47.3269H42.1724V70.8161H25.578V47.3269Z" fill="white"/>
</mask>
<g mask="url(#mask2_20_191)">
<path d="M33.9181 68.4825C30.0434 68.4825 28.0769 66.127 28.0769 61.4826C28.0769 58.3109 31.7324 53.1471 33.9181 50.4584C36.1047 53.1471 39.7603 58.3064 39.7603 61.4826C39.7603 66.127 37.7928 68.4825 33.9181 68.4825ZM33.0417 47.8792C32.7449 48.2161 25.7396 56.201 25.7396 61.4826C25.7396 67.4115 28.7196 70.816 33.9181 70.816C39.1166 70.816 42.0966 67.4115 42.0966 61.4826C42.0966 56.201 35.0913 48.2161 34.7946 47.8792C34.3472 47.3734 33.489 47.3734 33.0417 47.8792Z" fill="#9EC9D0"/>
</g>
<path d="M15.1107 45.1447C15.1473 45.1493 15.1883 45.1493 15.2249 45.1493C15.8183 45.1493 16.3287 44.6983 16.388 44.0966C16.4519 43.4585 15.9826 42.8842 15.339 42.8203C12.6092 42.5519 10.5102 41.4764 9.09967 39.6395C5.99189 35.5922 7.01899 29.0708 7.02812 29.0069C7.13768 28.3687 6.70401 27.7726 6.06949 27.6676C5.43497 27.5534 4.82784 27.9862 4.72741 28.6244C4.67263 28.9293 3.51406 36.1893 7.2381 41.0473C9.05859 43.4265 11.7062 44.8024 15.1107 45.1447Z" fill="#9EC9D0"/>
<path d="M49.1065 47.483C49.2571 47.483 52.7584 47.4556 54.8208 45.0262C56.0762 43.5453 56.5098 41.5578 56.099 39.1247C55.9986 38.4865 55.3914 38.0583 54.7569 38.1679C54.1178 38.2719 53.6887 38.8736 53.7983 39.5072C54.0859 41.23 53.8302 42.5748 53.0451 43.5088C51.6993 45.1038 49.1521 45.1494 49.1019 45.1494C48.4592 45.1494 47.9388 45.6735 47.9388 46.3162C47.9388 46.9589 48.4637 47.483 49.1065 47.483Z" fill="#9EC9D0"/>
<path d="M33.2745 63.9394C32.9686 63.7888 32.0292 63.2008 32.6263 62.0067C32.9138 61.4278 32.681 60.7257 32.1068 60.4391C31.527 60.1515 30.824 60.3843 30.5364 60.9586C29.2948 63.4373 30.8697 65.3472 32.2255 66.0265C32.3944 66.1087 32.5715 66.1498 32.7495 66.1498C33.1786 66.1498 33.5894 65.9124 33.7949 65.507C34.0825 64.9282 33.8496 64.2261 33.2745 63.9394Z" fill="#9EC9D0"/>
</svg>
