<svg width="1438" height="58" viewBox="0 0 1438 58" fill="none" xmlns="http://www.w3.org/2000/svg">
<path d="M1199.42 34.2827C1278.88 35.0098 1442 3.8147e-06 1442 3.8147e-06L0 -3.8147e-06V34.2827C0 96.5392 162.931 17.142 261.591 11.9517C421.257 3.55204 494.026 36.0133 654.227 34.2827C796.253 32.7485 854.096 -0.0972786 994.845 11.9517C1069.68 18.3585 1123.89 33.5917 1199.42 34.2827Z" fill="white"/>
<path d="M1199.42 34.2827C1278.88 35.0098 1442 3.8147e-06 1442 3.8147e-06L0 -3.8147e-06V34.2827C0 96.5392 162.931 17.142 261.591 11.9517C421.257 3.55204 494.026 36.0133 654.227 34.2827C796.253 32.7485 854.096 -0.0972786 994.845 11.9517C1069.68 18.3585 1123.89 33.5917 1199.42 34.2827Z" fill="#2C565C"/>
</svg>
